<svg class="animated" id="freepik_stories-fans" xmlns="http://www.w3.org/2000/svg" viewBox="0 0 750 500" version="1.1" xmlns:xlink="http://www.w3.org/1999/xlink" xmlns:svgjs="http://svgjs.com/svgjs"><style>svg#freepik_stories-fans:not(.animated) .animable {opacity: 0;}svg#freepik_stories-fans.animated #freepik--background-complete--inject-81 {animation: 1s 1 forwards cubic-bezier(.36,-0.01,.5,1.38) fadeIn;animation-delay: 0s;}svg#freepik_stories-fans.animated #freepik--Shadow--inject-81 {animation: 1s 1 forwards cubic-bezier(.36,-0.01,.5,1.38) slideRight;animation-delay: 0s;}svg#freepik_stories-fans.animated #freepik--Plant--inject-81 {animation: 1s 1 forwards cubic-bezier(.36,-0.01,.5,1.38) slideRight;animation-delay: 0s;}svg#freepik_stories-fans.animated #freepik--Sofa--inject-81 {animation: 1s 1 forwards cubic-bezier(.36,-0.01,.5,1.38) zoomIn;animation-delay: 0s;}svg#freepik_stories-fans.animated #freepik--Floor--inject-81 {animation: 1s 1 forwards cubic-bezier(.36,-0.01,.5,1.38) slideUp;animation-delay: 0s;}svg#freepik_stories-fans.animated #freepik--character-1--inject-81 {animation: 1s 1 forwards cubic-bezier(.36,-0.01,.5,1.38) zoomIn,1.5s Infinite  linear wind;animation-delay: 0s,1s;}svg#freepik_stories-fans.animated #freepik--character-2--inject-81 {animation: 1s 1 forwards cubic-bezier(.36,-0.01,.5,1.38) slideRight,1.5s Infinite  linear wind;animation-delay: 0s,1s;}svg#freepik_stories-fans.animated #freepik--Table--inject-81 {animation: 1s 1 forwards cubic-bezier(.36,-0.01,.5,1.38) slideUp;animation-delay: 0s;}svg#freepik_stories-fans.animated #freepik--Tv--inject-81 {animation: 1s 1 forwards cubic-bezier(.36,-0.01,.5,1.38) slideDown;animation-delay: 0s;}            @keyframes fadeIn {                0% {                    opacity: 0;                }                100% {                    opacity: 1;                }            }                    @keyframes slideRight {                0% {                    opacity: 0;                    transform: translateX(30px);                }                100% {                    opacity: 1;                    transform: translateX(0);                }            }                    @keyframes zoomIn {                0% {                    opacity: 0;                    transform: scale(0.5);                }                100% {                    opacity: 1;                    transform: scale(1);                }            }                    @keyframes slideUp {                0% {                    opacity: 0;                    transform: translateY(30px);                }                100% {                    opacity: 1;                    transform: inherit;                }            }                    @keyframes wind {                0% {                    transform: rotate( 0deg );                }                25% {                    transform: rotate( 1deg );                }                75% {                    transform: rotate( -1deg );                }            }                    @keyframes slideDown {                0% {                    opacity: 0;                    transform: translateY(-30px);                }                100% {                    opacity: 1;                    transform: translateY(0);                }            }        </style><g id="freepik--background-complete--inject-81" class="animable" style="transform-origin: 374.895px 195.29px;"><path d="M105.21,201.22l-13.13.28-6.66.11c-2.22,0-4.46,0-6.69.06h-.45v-.45l0-11.19v-.5h.5L92,189.6c4.41,0,8.82.11,13.24.16h.27V190c0,1.9-.09,3.79-.13,5.66Zm0,0-.14-5.65c0-1.86-.12-3.7-.14-5.54l.28.28c-4.42.05-8.83.16-13.24.16l-13.24.06.5-.5-.06,11.19-.44-.44c2.18,0,4.35,0,6.54.05l6.58.11Z" style="fill: rgb(235, 235, 235); transform-origin: 91.895px 195.6px;" id="elugoseqalv6p" class="animable"></path><path d="M90.44,215.33l-13.13.28-6.66.11c-2.23.05-4.46,0-6.69.06h-.45v-.45l0-11.19v-.5H64l13.24.07c4.41,0,8.82.11,13.24.16h.27v.27c0,1.9-.09,3.79-.13,5.66Zm0,0-.15-5.65c0-1.86-.11-3.71-.13-5.54l.28.28c-4.42.05-8.83.16-13.24.16L64,204.64l.49-.5,0,11.19-.44-.44c2.18,0,4.35,0,6.54.05l6.58.11Z" style="fill: rgb(235, 235, 235); transform-origin: 77.13px 209.71px;" id="elacrcrxdqr9v" class="animable"></path><path d="M120,215.33l-13.13.28-6.66.11c-2.22.05-4.46,0-6.69.06h-.44v-.45l0-11.19v-.5h.5l13.24.07c4.41,0,8.83.11,13.24.16h.27v.27c0,1.9-.08,3.79-.13,5.66Zm0,0-.14-5.65c0-1.86-.11-3.71-.13-5.54l.27.28c-4.41.05-8.83.16-13.24.16l-13.24.06.5-.5-.06,11.19-.44-.44c2.18,0,4.36,0,6.54.05l6.58.11Z" style="fill: rgb(235, 235, 235); transform-origin: 106.705px 209.71px;" id="eloy8v7tuhu4q" class="animable"></path><path d="M592.54,330.82l-13.13.28-6.66.11c-2.22.05-4.46,0-6.69.05h-.45v-.45l-.05-11.19v-.5h.5l13.24.06c4.41,0,8.82.11,13.24.16h.27v.27c0,1.9-.09,3.78-.13,5.65Zm0,0-.14-5.66c0-1.86-.12-3.7-.14-5.53l.28.27c-4.42.05-8.83.16-13.24.16l-13.24.07.5-.5-.06,11.19-.44-.45c2.18,0,4.36,0,6.54.06l6.58.11Z" style="fill: rgb(235, 235, 235); transform-origin: 579.185px 325.19px;" id="el6013cbbqqbl" class="animable"></path><path d="M577.77,344.93l-13.13.28-6.66.11c-2.23.05-4.46,0-6.69.05h-.45v-.45l-.05-11.19v-.5h.51l13.24.06c4.41,0,8.82.11,13.24.16H578v.27c0,1.9-.09,3.78-.13,5.65Zm0,0-.15-5.66c0-1.86-.11-3.7-.13-5.53l.28.27c-4.42.05-8.83.16-13.24.16l-13.24.07.49-.5,0,11.19-.44-.45c2.18,0,4.35,0,6.54.06l6.58.11Z" style="fill: rgb(235, 235, 235); transform-origin: 564.395px 339.3px;" id="elbj620qyk8c8" class="animable"></path><path d="M607.31,344.93l-13.13.28-6.66.11c-2.22.05-4.46,0-6.69.05h-.44v-.45l0-11.19v-.5h.5l13.24.06c4.41,0,8.83.11,13.24.16h.28v.27c0,1.9-.08,3.78-.13,5.65Zm0,0-.14-5.66c0-1.86-.11-3.7-.13-5.53l.27.27c-4.41.05-8.83.16-13.24.16l-13.24.07.5-.5-.06,11.19-.44-.45c2.18,0,4.36,0,6.54.06l6.58.11Z" style="fill: rgb(235, 235, 235); transform-origin: 594.02px 339.3px;" id="elq80hn69jvcf" class="animable"></path><path d="M671.27,215.33l-13.12.28-6.66.11c-2.23.05-4.47,0-6.7.06h-.44v-.45l-.06-11.19v-.5h.5l13.24.07c4.42,0,8.83.11,13.24.16h.28v.27c0,1.9-.09,3.79-.13,5.66Zm0,0-.14-5.65c0-1.86-.11-3.71-.13-5.54l.27.28c-4.41.05-8.82.16-13.24.16l-13.24.06.5-.5,0,11.19-.45-.44c2.18,0,4.36,0,6.55.05l6.58.11Z" style="fill: rgb(235, 235, 235); transform-origin: 657.92px 209.71px;" id="elzbmadkfl3cp" class="animable"></path><path d="M234,344.93l-13.12.28-6.66.11c-2.23.05-4.47,0-6.7.05h-.44v-.45L207,333.74v-.5h.5l13.24.06c4.41,0,8.83.11,13.24.16h.28v.27c0,1.9-.08,3.78-.13,5.65Zm0,0-.14-5.66c-.05-1.86-.11-3.7-.13-5.53l.27.27c-4.41.05-8.83.16-13.24.16l-13.24.07.5-.5L208,344.93l-.45-.45c2.18,0,4.36,0,6.55.06l6.58.11Z" style="fill: rgb(235, 235, 235); transform-origin: 220.63px 339.305px;" id="el7u9bh81sgb" class="animable"></path><path d="M671.27,56.9l-13.12.28-6.66.11c-2.23.05-4.47,0-6.7.06h-.44V56.9l-.06-11.19v-.5h.5l13.24.06c4.42,0,8.83.12,13.24.17h.28v.27c0,1.9-.09,3.79-.13,5.65Zm0,0-.14-5.65c0-1.87-.11-3.71-.13-5.54l.27.27c-4.41.06-8.82.16-13.24.17l-13.24.06.5-.5,0,11.19-.45-.44c2.18,0,4.36,0,6.55,0l6.58.11Z" style="fill: rgb(235, 235, 235); transform-origin: 657.92px 51.28px;" id="eljordv6ta2m" class="animable"></path><path d="M686,71l-13.12.28-6.66.11c-2.23,0-4.46,0-6.7.06h-.44V71l-.06-11.19v-.5h.5l13.24.06c4.42,0,8.83.12,13.24.17h.28v.27c0,1.9-.09,3.79-.13,5.65Zm0,0-.14-5.65c0-1.87-.11-3.71-.13-5.54l.27.27c-4.41,0-8.82.16-13.24.17l-13.24.06.5-.5L660,71l-.45-.45c2.19,0,4.36,0,6.55.06l6.58.11Z" style="fill: rgb(235, 235, 235); transform-origin: 672.65px 65.38px;" id="elteus8pss41" class="animable"></path><path d="M90.44,56.91l-13.13.28-6.66.11c-2.23.05-4.46,0-6.69.06h-.45v-.45l0-11.19v-.5H64l13.24.07c4.41,0,8.82.11,13.24.16h.27v.27c0,1.9-.09,3.79-.13,5.66Zm0,0-.15-5.65c0-1.86-.11-3.71-.13-5.54l.28.28c-4.42,0-8.83.15-13.24.16L64,46.22l.49-.5,0,11.19L64,56.47c2.18,0,4.35,0,6.54.05l6.58.11Z" style="fill: rgb(235, 235, 235); transform-origin: 77.13px 51.29px;" id="elat0l1szo4o4" class="animable"></path><path d="M452.39,179.25l13.12-.28,6.66-.11c2.23-.05,4.46,0,6.7-.06h.44v.45l.06,11.19v.5h-.5l-13.24-.06c-4.42,0-8.83-.12-13.24-.17h-.28v-.27c0-1.9.09-3.79.13-5.65Zm0,0,.14,5.65c0,1.87.11,3.71.13,5.54l-.27-.27c4.41-.06,8.82-.16,13.24-.17l13.24-.06-.5.5.05-11.19.45.44c-2.19,0-4.36,0-6.55-.05l-6.58-.11Z" style="fill: rgb(235, 235, 235); transform-origin: 465.74px 184.87px;" id="eluk4lcafljt7" class="animable"></path><path d="M467.16,165.14l13.12-.28,6.66-.11c2.23-.05,4.47,0,6.7-.06h.44v.45l.06,11.19v.5h-.5l-13.24-.06c-4.42,0-8.83-.12-13.24-.17h-.28v-.27c0-1.9.09-3.79.14-5.65Zm0,0,.14,5.65c0,1.87.11,3.71.13,5.54l-.27-.27c4.41-.06,8.82-.16,13.24-.17l13.24-.06-.5.5.05-11.19.45.44c-2.18,0-4.36,0-6.55-.05l-6.58-.11Z" style="fill: rgb(235, 235, 235); transform-origin: 480.51px 170.76px;" id="elrj4wftcxc8f" class="animable"></path><rect x="486.84" y="117.22" width="173.85" height="7.62" style="fill: rgb(235, 235, 235); transform-origin: 573.765px 121.03px;" id="eldvtcacwjkea" class="animable"></rect><rect x="496.59" y="124.84" width="7.63" height="25.21" style="fill: rgb(235, 235, 235); transform-origin: 500.405px 137.445px;" id="eln8xx6oh74gs" class="animable"></rect><rect x="496.59" y="124.84" width="7.63" height="7.79" style="fill: rgb(219, 219, 219); transform-origin: 500.405px 128.735px;" id="elz0bdae5vzli" class="animable"></rect><rect x="643.32" y="124.84" width="7.63" height="25.21" style="fill: rgb(235, 235, 235); transform-origin: 647.135px 137.445px;" id="elpdgf09f52h" class="animable"></rect><rect x="643.32" y="124.84" width="7.63" height="7.79" style="fill: rgb(219, 219, 219); transform-origin: 647.135px 128.735px;" id="elnx6l71p3uv" class="animable"></rect><g id="elyw52be3qa2f"><rect x="491.79" y="86.81" width="48.59" height="12.24" style="fill: rgb(199, 199, 199); transform-origin: 516.085px 92.93px; transform: rotate(90deg);" class="animable" id="el6x4n2dw7oz"></rect></g><g id="elsudbxtuud4f"><rect x="514.17" y="61.82" width="5.34" height="13.76" style="fill: rgb(219, 219, 219); transform-origin: 516.84px 68.7px; transform: rotate(90deg);" class="animable" id="el95abn6y1t79"></rect></g><g id="elu7v4c95jous"><rect x="515.09" y="73.09" width="1.98" height="12.24" style="fill: rgb(219, 219, 219); transform-origin: 516.08px 79.21px; transform: rotate(90deg);" class="animable" id="elk0vrxlnkse9"></rect></g><g id="elefd1nxhvved"><rect x="514.17" y="101.3" width="5.34" height="13.76" style="fill: rgb(219, 219, 219); transform-origin: 516.84px 108.18px; transform: rotate(90deg);" class="animable" id="eloddld49x7as"></rect></g><g id="elrrzqt5zrrv"><rect x="498.13" y="84.6" width="56.68" height="8.55" style="fill: rgb(219, 219, 219); transform-origin: 526.47px 88.875px; transform: rotate(90deg);" class="animable" id="elu19lplkhxw"></rect></g><g id="elr927x8471uk"><rect x="515.54" y="74.2" width="21.8" height="5.13" style="fill: rgb(235, 235, 235); transform-origin: 526.44px 76.765px; transform: rotate(90deg);" class="animable" id="eln6qgbsm9p7q"></rect></g><g id="elwhtujswtgvr"><rect x="540.09" y="89.99" width="56.68" height="8.55" style="fill: rgb(199, 199, 199); transform-origin: 568.43px 94.265px; transform: rotate(44.67deg);" class="animable" id="elnkqw7ecr4s"></rect></g><g id="eldgig4c3vsgt"><rect x="560.49" y="94.59" width="21.8" height="5.13" style="fill: rgb(219, 219, 219); transform-origin: 571.39px 97.155px; transform: rotate(44.67deg);" class="animable" id="elh2gio0vdva"></rect></g><g id="elryfb0on2cmf"><rect x="516.48" y="88.44" width="43.05" height="14.52" style="fill: rgb(166, 166, 166); transform-origin: 538.005px 95.7px; transform: rotate(90deg);" class="animable" id="elz2sf33i0mc"></rect></g><g id="eltdsu2pfzsrg"><rect x="536" y="103.4" width="4.01" height="14.52" style="fill: rgb(199, 199, 199); transform-origin: 538.005px 110.66px; transform: rotate(90deg);" class="animable" id="elv871cbcat98"></rect></g><g id="eljs4yo834jo"><rect x="537.23" y="97.98" width="1.56" height="14.52" style="fill: rgb(199, 199, 199); transform-origin: 538.01px 105.24px; transform: rotate(90deg);" class="animable" id="elfc0gjtxtn0u"></rect></g><polygon points="633.08 98.36 631.99 101.25 631.32 103.01 630.23 105.91 625.96 117.22 602.86 117.22 598.58 105.91 597.48 103.01 596.81 101.25 595.72 98.36 604.24 85.94 599.83 77.75 629 77.75 624.56 85.94 633.08 98.36" style="fill: rgb(219, 219, 219); transform-origin: 614.4px 97.485px;" id="elklg9k8ok6zn" class="animable"></polygon><polygon points="633.08 98.36 631.99 101.25 596.81 101.25 595.72 98.36 633.08 98.36" style="fill: rgb(166, 166, 166); transform-origin: 614.4px 99.805px;" id="el0z4vdku4qb8e" class="animable"></polygon><polygon points="631.32 103.01 630.23 105.91 598.58 105.91 597.48 103.01 631.32 103.01" style="fill: rgb(166, 166, 166); transform-origin: 614.4px 104.46px;" id="elxw9ns36t3dr" class="animable"></polygon></g><g id="freepik--Shadow--inject-81" class="animable" style="transform-origin: 406.95px 444.34px;"><ellipse cx="406.95" cy="444.34" rx="277.98" ry="20.95" style="fill: rgb(235, 235, 235); transform-origin: 406.95px 444.34px;" id="eluc84yo3tqq" class="animable"></ellipse></g><g id="freepik--Plant--inject-81" class="animable" style="transform-origin: 80.5869px 113.105px;"><polygon points="100.35 140.04 80.86 50.1 62.85 140.03 61.99 139.91 80.83 45.87 101.2 139.9 100.35 140.04" style="fill: rgb(219, 219, 219); transform-origin: 81.595px 92.955px;" id="el6h7jamwv87" class="animable"></polygon><path d="M82.63,47.49a1.79,1.79,0,1,1-1.79-1.78A1.79,1.79,0,0,1,82.63,47.49Z" style="fill: rgb(166, 166, 166); transform-origin: 80.84px 47.5px;" id="elr6qlp0sagj8" class="animable"></path><polygon points="106.24 142.43 105.38 153.69 103.35 180.5 60.16 180.5 58.13 153.69 57.27 142.43 106.24 142.43" style="fill: #EF5354; transform-origin: 81.755px 161.465px;" id="elodagetw95z" class="animable"></polygon><g id="el86ostlwsnip"><polygon points="106.24 142.43 105.38 153.69 58.13 153.69 57.27 142.43 106.24 142.43" style="opacity: 0.1; transform-origin: 81.755px 148.06px;" class="animable" id="elcvxabag08gh"></polygon></g><rect x="54.31" y="138.83" width="54.9" height="8.74" style="fill: #EF5354; transform-origin: 81.76px 143.2px;" id="el8z32smce6v3" class="animable"></rect><path d="M108,141a3.18,3.18,0,0,1,.67,3,5.89,5.89,0,0,1-3.36,3,3.58,3.58,0,0,1-1.2,5.26c1.31,1.53,1.85,3.28.16,4.41a3.94,3.94,0,0,1-1.19,5.6c.37,1.21-.8,4.83-3.28,4.82a2.61,2.61,0,0,1-2.27-3.87,3.06,3.06,0,0,1-.71-4.85s-1.54.33-2.26-.45a2.09,2.09,0,0,1-.13-2.07,3.5,3.5,0,0,1,.8-5.11,2.9,2.9,0,0,1,0-4.34A4,4,0,0,1,93.43,145c-1.25.6-2,.07-2.7-1.11a2.91,2.91,0,0,1-3.13.82,3.45,3.45,0,0,1-5.06,2,4.76,4.76,0,0,1-1,2.57,8.37,8.37,0,0,1-.57.62,4.9,4.9,0,0,0-.55.91,4.22,4.22,0,0,1-1.14,1.31,2.15,2.15,0,0,1-2.85-.12,1.62,1.62,0,0,1-.26-1.69,2.19,2.19,0,0,1-1.37-2.78A2.66,2.66,0,0,1,72.22,146a2.83,2.83,0,0,1-2.16,1.09,3.17,3.17,0,0,1-1.8,4,3.25,3.25,0,0,1-1.41,4.64,2.29,2.29,0,0,1-.67,3.05,2.91,2.91,0,0,1-.11,2.62,1.9,1.9,0,0,1-1.78.85,1.4,1.4,0,0,1-.85-2.09,3.54,3.54,0,0,1-1.27-5.83,2.88,2.88,0,0,1-1.7-4.39,2.85,2.85,0,0,1-1.64-4.63,1.73,1.73,0,0,1-1.57-.58,1.58,1.58,0,0,1-.32-1,2.22,2.22,0,0,1-2.41-1.05,2.19,2.19,0,0,1,.44-2.54,1.84,1.84,0,0,1-1.23-1.33,1.67,1.67,0,0,1,.14-1.11,2.15,2.15,0,0,1-2.57-1.81,1.74,1.74,0,0,1,1.17-1.82,2.15,2.15,0,0,1-.17-1.4c.33-1.33,1.87-1.74,3.09-1.89a2.74,2.74,0,0,1,3.05-3.59,2.83,2.83,0,0,1,1.31-2.63,2.69,2.69,0,0,1,3,.23h.08A3.33,3.33,0,0,1,65.62,128a3.42,3.42,0,0,1,3.27,0,4.8,4.8,0,0,1,2.26,3.32,3.89,3.89,0,0,1,6.24.81,3.57,3.57,0,0,1,6.16,2,8.84,8.84,0,0,1,8.3-1.63,3.9,3.9,0,0,1,5.89-1.87,3.9,3.9,0,0,1,4-2.37,5.86,5.86,0,0,1,4.4,3.64,4,4,0,0,1,3.47,5.21A2.87,2.87,0,0,1,108,141Z" style="fill: rgb(69, 90, 100); transform-origin: 80.5869px 145.649px;" id="eltzsi4ieodn" class="animable"></path></g><g id="freepik--Sofa--inject-81" class="animable" style="transform-origin: 238.065px 284.66px;"><polygon points="393.61 359.31 379.85 359.31 359.36 235.41 393.61 235.41 393.61 359.31" style="fill: rgb(199, 199, 199); transform-origin: 376.485px 297.36px;" id="elv7f3z7aiqq" class="animable"></polygon><rect x="393.61" y="235.41" width="27.66" height="123.89" style="fill: rgb(219, 219, 219); transform-origin: 407.44px 297.355px;" id="elvtxb0jceuhp" class="animable"></rect><path d="M393.61,235.41c.21,8.09.31,16.18.39,24.27l.13,44.87L394,328.81,393.86,341l-.25,12.13L393.35,341l-.15-12.14-.12-24.26.13-44.87C393.29,251.59,393.39,243.5,393.61,235.41Z" style="fill: rgb(199, 199, 199); transform-origin: 393.605px 294.27px;" id="elek36oek8309" class="animable"></path><polygon points="248 306.31 215.15 306.31 196.35 198.25 226.43 182.32 248 306.31" style="fill: rgb(199, 199, 199); transform-origin: 222.175px 244.315px;" id="elaetajwy387" class="animable"></polygon><polygon points="371.69 306.31 248 306.31 226.43 182.32 350.13 182.32 371.69 306.31" style="fill: rgb(219, 219, 219); transform-origin: 299.06px 244.315px;" id="ellk2yd1p132j" class="animable"></polygon><polygon points="122.06 306.31 89.22 306.31 70.42 198.25 100.49 182.32 122.06 306.31" style="fill: rgb(199, 199, 199); transform-origin: 96.24px 244.315px;" id="elv9099jzxr7" class="animable"></polygon><polygon points="245.76 306.31 122.06 306.31 100.49 182.32 224.19 182.32 245.76 306.31" style="fill: rgb(219, 219, 219); transform-origin: 173.125px 244.315px;" id="elcqe1gqtkkes" class="animable"></polygon><rect x="54.86" y="235.41" width="50.34" height="123.89" style="fill: rgb(199, 199, 199); transform-origin: 80.03px 297.355px;" id="el7910aml17jk" class="animable"></rect><rect x="105.2" y="235.41" width="27.66" height="123.89" style="fill: rgb(219, 219, 219); transform-origin: 119.03px 297.355px;" id="el7vwtny5gode" class="animable"></rect><path d="M112,235.41l10.44-.18,10.44-.13h.31v.33l.12,12.08,0,32.7q.06,12.09,0,24.17c0,8.06,0,16.12-.14,24.17s-.18,16.12-.35,24.18q-.26-12.09-.35-24.18c-.1-8.05-.12-16.11-.14-24.17s0-16.11,0-24.17l0-32.7.12-12.08.32.31-10.44-.13Z" style="fill: rgb(199, 199, 199); transform-origin: 122.67px 293.915px;" id="elwdl4r9fux" class="animable"></path><rect x="132.86" y="306.31" width="260.29" height="53" style="fill: rgb(219, 219, 219); transform-origin: 263.005px 332.81px;" id="elqi1i0yjxha" class="animable"></rect><rect x="132.86" y="283.39" width="260.29" height="23.13" style="fill: rgb(219, 219, 219); transform-origin: 263.005px 294.955px;" id="el62c4fr79zpp" class="animable"></rect><path d="M393.15,306.31c-8.84.21-17.69.31-26.53.39l-26.54.13-180.69-.12-13.26-.15-13.27-.25,13.27-.26,13.26-.15,180.69-.12,26.54.13C375.46,306,384.31,306.09,393.15,306.31Z" style="fill: rgb(199, 199, 199); transform-origin: 263.005px 306.305px;" id="eljiuoeh14hzj" class="animable"></path><path d="M393.15,283.39c-8.84.22-17.69.32-26.53.4l-26.54.12-180.69-.12-13.26-.14-13.27-.26,13.27-.25,13.26-.15,180.69-.12,26.54.12C375.46,283.08,384.31,283.18,393.15,283.39Z" style="fill: rgb(199, 199, 199); transform-origin: 263.005px 283.39px;" id="el4hi987jb63f" class="animable"></path><polygon points="73.99 359.31 73.31 367.67 71.72 387 64.43 387 62.84 367.67 62.16 359.31 73.99 359.31" style="fill: rgb(199, 199, 199); transform-origin: 68.075px 373.155px;" id="el405lmg4n5lt" class="animable"></polygon><polygon points="62.16 359.31 73.99 359.31 73.31 367.67 62.84 367.67 62.16 359.31" style="fill: rgb(166, 166, 166); transform-origin: 68.075px 363.49px;" id="elilxvdlhnbv8" class="animable"></polygon><polygon points="124.94 359.31 124.26 367.67 122.67 387 115.39 387 113.8 367.67 113.11 359.31 124.94 359.31" style="fill: rgb(199, 199, 199); transform-origin: 119.025px 373.155px;" id="elwquvghedsk" class="animable"></polygon><polygon points="113.11 359.31 124.94 359.31 124.26 367.67 113.8 367.67 113.11 359.31" style="fill: rgb(166, 166, 166); transform-origin: 119.025px 363.49px;" id="el6duf0szew1s" class="animable"></polygon><polygon points="361.77 359.31 361.09 367.67 359.5 387 352.21 387 350.63 367.67 349.94 359.31 361.77 359.31" style="fill: rgb(199, 199, 199); transform-origin: 355.855px 373.155px;" id="ellhdl52ge9w" class="animable"></polygon><polygon points="349.94 359.31 361.77 359.31 361.09 367.67 350.63 367.67 349.94 359.31" style="fill: rgb(166, 166, 166); transform-origin: 355.855px 363.49px;" id="elqmn2vofgae8" class="animable"></polygon><polygon points="412.74 359.31 412.05 367.67 410.46 387 403.18 387 401.59 367.67 400.91 359.31 412.74 359.31" style="fill: rgb(199, 199, 199); transform-origin: 406.825px 373.155px;" id="elw9mwchwq7l8" class="animable"></polygon><polygon points="412.74 359.31 412.05 367.67 401.59 367.67 400.91 359.31 412.74 359.31" style="fill: rgb(166, 166, 166); transform-origin: 406.825px 363.49px;" id="ela57iuk5ff09" class="animable"></polygon><path d="M153,231.82a.68.68,0,0,0,0,1.36A.68.68,0,0,0,153,231.82Z" style="fill: rgb(166, 166, 166); transform-origin: 153px 232.5px;" id="elquxq7pyhdpa" class="animable"></path><path d="M154.16,314.91a.68.68,0,0,0,0,1.36A.68.68,0,0,0,154.16,314.91Z" style="fill: rgb(166, 166, 166); transform-origin: 154.16px 315.59px;" id="elczl8tmlll6l" class="animable"></path><path d="M111.92,190.37l-.11-.21a.31.31,0,0,0-.53,0,2,2,0,0,0-.1.21C110.79,191.17,112.3,191.17,111.92,190.37Z" style="fill: rgb(166, 166, 166); transform-origin: 111.548px 190.49px;" id="el8cb3qml3o4f" class="animable"></path><path d="M125.31,316.62a1.24,1.24,0,0,0-.1-.2.31.31,0,0,0-.53,0,1.24,1.24,0,0,0-.1.2C124.19,317.42,125.7,317.42,125.31,316.62Z" style="fill: rgb(166, 166, 166); transform-origin: 124.945px 316.745px;" id="elo4l97bal73" class="animable"></path><path d="M158.84,236a.52.52,0,0,0,0,1A.52.52,0,0,0,158.84,236Z" style="fill: rgb(166, 166, 166); transform-origin: 158.84px 236.5px;" id="elkfv81f1ywyg" class="animable"></path><path d="M370.85,252.87a.52.52,0,0,0,0,1A.52.52,0,0,0,370.85,252.87Z" style="fill: rgb(166, 166, 166); transform-origin: 370.85px 253.37px;" id="el24oz5bbirze" class="animable"></path><path d="M115.22,288.63a.52.52,0,0,0,0,1A.52.52,0,0,0,115.22,288.63Z" style="fill: rgb(166, 166, 166); transform-origin: 115.22px 289.13px;" id="el1qo7xagb826" class="animable"></path><path d="M183.33,207a.72.72,0,0,0-1,0,1,1,0,0,0-.24,1,.79.79,0,0,0,1.51,0A1,1,0,0,0,183.33,207Z" style="fill: rgb(166, 166, 166); transform-origin: 182.842px 207.678px;" id="elabte5hvh4j6" class="animable"></path><path d="M159.85,311.07a.71.71,0,0,0-1,0,1,1,0,0,0-.25,1,.79.79,0,0,0,1.51,0A1,1,0,0,0,159.85,311.07Z" style="fill: rgb(166, 166, 166); transform-origin: 159.354px 311.746px;" id="el76ucnf8ahve" class="animable"></path><path d="M68.59,257.54a.74.74,0,0,0-1,0,1,1,0,0,0-.25,1,.79.79,0,0,0,1.51,0A1,1,0,0,0,68.59,257.54Z" style="fill: rgb(166, 166, 166); transform-origin: 68.0938px 258.222px;" id="ely468yo4xgds" class="animable"></path><path d="M278.65,195.33a.68.68,0,0,0,0-1.36A.68.68,0,0,0,278.65,195.33Z" style="fill: rgb(166, 166, 166); transform-origin: 278.65px 194.65px;" id="elj2vporsp76q" class="animable"></path><path d="M287.59,318.07a.68.68,0,0,0,0-1.36A.68.68,0,0,0,287.59,318.07Z" style="fill: rgb(166, 166, 166); transform-origin: 287.59px 317.39px;" id="elsc7mmbo8gt" class="animable"></path><path d="M253.83,227.41a.68.68,0,0,0,0-1.35A.68.68,0,0,0,253.83,227.41Z" style="fill: rgb(166, 166, 166); transform-origin: 253.83px 226.735px;" id="el1xp3j4paeno" class="animable"></path><path d="M378.32,246.6a1.28,1.28,0,0,0,.11.2.3.3,0,0,0,.52,0,1.28,1.28,0,0,0,.11-.2C379.45,245.8,377.94,245.8,378.32,246.6Z" style="fill: rgb(166, 166, 166); transform-origin: 378.692px 246.475px;" id="eli3pwho3pay" class="animable"></path><path d="M317.07,311.66a1.24,1.24,0,0,0,.1.2.31.31,0,0,0,.53,0,1.24,1.24,0,0,0,.1-.2C318.19,310.85,316.68,310.85,317.07,311.66Z" style="fill: rgb(166, 166, 166); transform-origin: 317.435px 311.531px;" id="elfodabwtqjsl" class="animable"></path><path d="M323.1,348a1.28,1.28,0,0,0,.11.2.3.3,0,0,0,.52,0,1.28,1.28,0,0,0,.11-.2C324.23,347.17,322.72,347.17,323.1,348Z" style="fill: rgb(166, 166, 166); transform-origin: 323.472px 347.864px;" id="el9pjh9msrgw" class="animable"></path><path d="M388.1,341.51a.72.72,0,0,0,1,0,1,1,0,0,0,.24-1,.79.79,0,0,0-1.51,0A1,1,0,0,0,388.1,341.51Z" style="fill: rgb(166, 166, 166); transform-origin: 388.588px 340.832px;" id="elbzjx42q7ei" class="animable"></path><path d="M233.11,270.74a.72.72,0,0,0,1,0,1,1,0,0,0,.24-1,.79.79,0,0,0-1.51,0A1,1,0,0,0,233.11,270.74Z" style="fill: rgb(166, 166, 166); transform-origin: 233.598px 270.062px;" id="elw4b97ex56w" class="animable"></path></g><g id="freepik--Floor--inject-81" class="animable" style="transform-origin: 375px 387.005px;"><polygon points="55.64 387 135.48 386.76 215.32 386.67 375 386.51 534.68 386.67 614.52 386.76 694.36 387 614.52 387.25 534.68 387.34 375 387.5 215.32 387.34 135.48 387.25 55.64 387" style="fill: rgb(38, 50, 56); transform-origin: 375px 387.005px;" id="elnc7jz38n8kn" class="animable"></polygon></g><g id="freepik--character-1--inject-81" class="animable" style="transform-origin: 197.849px 236.797px;"><path d="M191.05,177.06c-.23-2.38-.39-4.79-.44-7.19a67.21,67.21,0,0,1-.24-10.33c.34-5.67,1.12-12.5,6.47-15.71a20.31,20.31,0,0,1,8.17-2.42c3-.33,6.1-.36,8.77,1.11a7.76,7.76,0,0,1,2.64,2.39A18.46,18.46,0,0,1,222,147.7c2.11,1.09,3.44,3.46,4.29,5.58a31.26,31.26,0,0,1,1.79,8,18.75,18.75,0,0,1-.25,7.5,38.66,38.66,0,0,1-2.59,6.2,23.52,23.52,0,0,0-2.49,7.69.07.07,0,1,1-.14,0c.28-4.37,2.81-8.13,4.25-12.16a17,17,0,0,0,1-7.14,42.62,42.62,0,0,0-1.34-8.26,13.83,13.83,0,0,0-3.57-6.53l.09.09c2.06,2.22,2.85,5.26,3.36,8.16a33.86,33.86,0,0,1,.49,9.84,32.32,32.32,0,0,1-2.57,8.57,33.79,33.79,0,0,0-2.77,8.53,26,26,0,0,0,1,9.35,37.16,37.16,0,0,1,1.44,9,13.13,13.13,0,0,1-2.52,7.69c-3.05,4.13-9.46,7.21-14.11,3.79a17.21,17.21,0,0,1-3-3.07,41.11,41.11,0,0,1-2.7-3.73,51.93,51.93,0,0,1-4.46-8.72,97.63,97.63,0,0,1-5.1-18.74c-.29-1.57-.56-3.15-.79-4.73a96.9,96.9,0,0,0,1.48,10.7c1.27,6.37,3,12.85,6.14,18.58a41.15,41.15,0,0,0,2.67,4.3c1.07,1.51,2.27,2.88,3.43,4.3.07.09,0,.2-.12.12a33.34,33.34,0,0,1-5.68-7.4,45.68,45.68,0,0,1-3.94-8.8A88.22,88.22,0,0,1,191.05,177.06Z" style="fill: rgb(38, 50, 56); transform-origin: 209.309px 178.147px;" id="elo6x9u92rts8" class="animable"></path><path d="M111.18,288.79c-1.13,2,4.64,5.4,7.78,5.19,1-.08,28.45-8.74,28.45-8.74l44.15,9.13L206.41,262s-31.47-7.22-31.58-7.33c-7.71-7.87-11.88-11.75-12.93-11.56C159.08,243.63,112.31,286.73,111.18,288.79Z" style="fill: rgb(211, 118, 106); transform-origin: 158.723px 268.737px;" id="el2vvh24h6084" class="animable"></path><path d="M110,289.14c.77-1.37,21.25-20.28,36.49-33.68,3.53-3.1,6.78-5.91,9.44-8.14,3.67-3.07,6.2-5,6.81-5.15.83-.14,6.75,7,12.35,12.12.76.7,10.23,2.28,10.23,2.28L156,287.52,146.48,286s-25.15,8.29-28.42,8.52S108.86,291.26,110,289.14Z" style="fill: #EF5354; transform-origin: 147.588px 268.349px;" id="elizq9h5j9dr8" class="animable"></path><path d="M112.5,290.45c8.33-7.23,41.27-37.18,49-45,.06-.07,0-.11-.05-.05-8.41,7-41.11,37.2-49,44.88C112.21,290.48,112.32,290.6,112.5,290.45Z" style="fill: rgb(38, 50, 56); transform-origin: 136.919px 267.944px;" id="el98imewqduka" class="animable"></path><path d="M148,288.55c3.76-2.33,7.23-6.4,7.6-10.92,0-.17-.23-.19-.31-.06a61.45,61.45,0,0,1-7.64,10.56A.28.28,0,0,0,148,288.55Z" style="fill: rgb(38, 50, 56); transform-origin: 151.596px 283.033px;" id="el7yd9laof5ad" class="animable"></path><path d="M144.46,289.26c3.75-2.32,7.22-6.39,7.59-10.91,0-.18-.23-.19-.31-.07a60.47,60.47,0,0,1-7.64,10.57A.28.28,0,0,0,144.46,289.26Z" style="fill: rgb(38, 50, 56); transform-origin: 148.049px 283.747px;" id="elain0wpudydd" class="animable"></path><path d="M140.87,290c3.75-2.33,7.23-6.4,7.59-10.92,0-.17-.23-.19-.3-.06a61,61,0,0,1-7.65,10.56A.28.28,0,0,0,140.87,290Z" style="fill: rgb(38, 50, 56); transform-origin: 144.452px 284.489px;" id="eleglrzyt90y" class="animable"></path><path d="M137.28,290.69c3.75-2.32,7.23-6.39,7.6-10.91,0-.18-.24-.19-.31-.07a61,61,0,0,1-7.65,10.57A.28.28,0,0,0,137.28,290.69Z" style="fill: rgb(38, 50, 56); transform-origin: 140.874px 285.177px;" id="elgcjtyxwog4q" class="animable"></path><path d="M148.88,301.37c2.84.59,4.48-2.34,4.79-4.68a23.11,23.11,0,0,0-1.76-11.85c0-.09-.11-.09-.18,0a.53.53,0,0,0-.86.06c-1.76,3.39-4.06,6.81-4.72,10.64C145.77,297.73,146.19,300.81,148.88,301.37Zm.38-10.83c.82-1.69,1.72-3.33,2.48-5.05a67.47,67.47,0,0,1,.87,6.94,25.57,25.57,0,0,1,0,3.39c-.16,1.74-2.26,7-4.9,3C146.23,296.59,148.28,292.55,149.26,290.54Z" style="fill: rgb(38, 50, 56); transform-origin: 149.926px 293.047px;" id="ellfa3b6svct" class="animable"></path><path d="M160.83,278.24c-3.67,1.28-6.66,4.11-9.72,6.4a.55.55,0,0,0,.09.87c0,.07,0,.15.08.17a23.14,23.14,0,0,0,12-.22c2.27-.7,4.88-2.79,3.83-5.5C166.09,277.4,163,277.49,160.83,278.24Zm3.54,1c4.41,1.94-.46,4.88-2.15,5.33a27.13,27.13,0,0,1-3.34.58c-2.33.28-4.65.23-7,.28,1.57-1,3-2.19,4.57-3.28C158.29,280.82,161.93,278.14,164.37,279.21Z" style="fill: rgb(38, 50, 56); transform-origin: 159.143px 282.072px;" id="elmcepiln5dmd" class="animable"></path><path d="M167.13,291.83s72.32,17,99,12.37c12.76-2.23,22.05-18.58,16-31.18-5.65-11.76-40.54-23.85-50.38-30.8-3.1-2.17-2.72-10.74-2.72-10.74L203.07,231s-9.33,14.64-5.45,21.81a2.91,2.91,0,0,0,.22.36l-11.68-4.52Z" style="fill: rgb(69, 90, 100); transform-origin: 225.576px 268px;" id="ellvsenmqyx98" class="animable"></path><path d="M183.27,272.34c2.91-6.26,6.12-12.37,9.09-18.6.06-.12.25-.06.19.07-2.8,6.28-5.4,12.65-8.31,18.88s-6.09,12.38-9.15,18.57c-.08.16-.34.07-.26-.1C177.66,284.89,180.36,278.57,183.27,272.34Z" style="fill: rgb(38, 50, 56); transform-origin: 183.688px 272.509px;" id="el1gq3vqpt5u6" class="animable"></path><path d="M197.67,253.46c1.78,1,3.48,2.26,5.21,3.39s3.42,2.22,5.17,3.27c3.53,2.13,7.14,4.12,10.8,6a185.36,185.36,0,0,0,22.8,10c4.36,1.56,8.77,3.08,13.25,4.22.1,0,.06.17,0,.15-3.27-.8-6.54-1.59-9.77-2.52,1.71,1.09,3.39,2.23,5.09,3.33a.08.08,0,1,1-.08.13c-1.86-1.13-3.75-2.23-5.59-3.39a.18.18,0,0,1,0-.26l-1.65-.49c-4-1.26-7.95-2.67-11.82-4.27a145.43,145.43,0,0,1-22.08-11.31q-3-1.86-5.87-3.84a54,54,0,0,1-5.56-4.16C197.35,253.57,197.53,253.37,197.67,253.46Z" style="fill: rgb(38, 50, 56); transform-origin: 226.214px 267.448px;" id="elzzh2imidsr" class="animable"></path><path d="M258.14,429.58c-2.36,0-64.07-21.66-65.86-23.92-.22-.25,1.69-5.85,4.26-13.53,1.51-4.51,3.77-10,6.24-15.57,6.58-14.82,14.74-30.36,14.74-30.36L257.64,362l-14.72,27.76-5,9.5s7.44,7,13.52,13c0,0,0,0,0,0a93.38,93.38,0,0,1,7.63,8C260.72,422.92,260.48,429.61,258.14,429.58Z" style="fill: rgb(211, 118, 106); transform-origin: 226.198px 387.89px;" id="el0qcdp1miw1a" class="animable"></path><path d="M258.49,430.18c-1.57,0-27.92-9.12-47-16.21-4.4-1.64-8.41-3.18-11.63-4.46-4.44-1.78-7.38-3.08-7.76-3.57-.84-1.07,4.41-14.07,9-28.1l40.59,14.36-3.27,7.33s19.21,18.23,21,21S260.91,430.2,258.49,430.18Z" style="fill: #EF5354; transform-origin: 226.289px 404.01px;" id="elbqlvgx99qmd" class="animable"></path><path d="M258.47,427.38c-10.31-3.92-52.29-18.76-62.78-21.85-.08,0-.1,0,0,.06,10.14,4.11,52.23,18.61,62.74,22C258.63,427.62,258.69,427.46,258.47,427.38Z" style="fill: rgb(38, 50, 56); transform-origin: 227.116px 416.562px;" id="eltxti6jbdyi" class="animable"></path><path d="M240,397c-3.82-2.21-9.05-3.34-13.21-1.53-.16.07-.06.3.09.31a61.4,61.4,0,0,1,12.93,1.73A.27.27,0,0,0,240,397Z" style="fill: rgb(38, 50, 56); transform-origin: 233.443px 396.049px;" id="el2tpfkyx067o" class="animable"></path><path d="M242.3,399.79c-3.82-2.2-9.05-3.34-13.21-1.53-.16.08-.06.3.09.31a61.22,61.22,0,0,1,12.92,1.73A.28.28,0,0,0,242.3,399.79Z" style="fill: rgb(38, 50, 56); transform-origin: 235.717px 398.833px;" id="elbu0yuo1men8" class="animable"></path><path d="M244.63,402.61c-3.83-2.2-9-3.34-13.21-1.52-.16.07-.06.3.09.3a60.59,60.59,0,0,1,12.92,1.74A.28.28,0,0,0,244.63,402.61Z" style="fill: rgb(38, 50, 56); transform-origin: 238.061px 401.663px;" id="eld28v70k7efr" class="animable"></path><path d="M247,405.44c-3.83-2.21-9.06-3.35-13.21-1.53-.16.07-.06.3.09.3A60.76,60.76,0,0,1,246.76,406,.28.28,0,0,0,247,405.44Z" style="fill: rgb(38, 50, 56); transform-origin: 240.446px 404.515px;" id="elcgi5njzwi3" class="animable"></path><path d="M250.87,390.16c-.83-2.78-4.17-2.84-6.39-2a23.13,23.13,0,0,0-9.61,7.16c-.06.07,0,.14,0,.18a.53.53,0,0,0,.46.73c3.82-.06,7.91.35,11.6-.88C249.14,394.63,251.65,392.8,250.87,390.16Zm-9.72,4.8c-1.88.07-3.75.06-5.62.2a69.22,69.22,0,0,1,5.7-4.06,25.19,25.19,0,0,1,3-1.58c1.61-.68,7.26-1.34,5,2.9C247.91,394.76,243.39,394.87,241.15,395Z" style="fill: rgb(38, 50, 56); transform-origin: 242.923px 391.968px;" id="elrna3dowi4l" class="animable"></path><path d="M224.84,390.58c2.87,2.63,6.77,3.92,10.24,5.53a.53.53,0,0,0,.72-.48c.08,0,.14-.06.12-.15A23.16,23.16,0,0,0,230.05,385c-1.68-1.66-4.76-3-6.65-.77S223.17,389.05,224.84,390.58ZM224,387c-.38-4.81,4.52-1.9,5.71-.63a24.2,24.2,0,0,1,2.09,2.66,69.08,69.08,0,0,1,3.56,6c-1.65-.89-3.37-1.64-5-2.47C228.32,391.6,224.23,389.66,224,387Z" style="fill: rgb(38, 50, 56); transform-origin: 229.242px 389.601px;" id="elc1i37xpr0vv" class="animable"></path><path d="M247.29,390.62l-45.13-18s27.91-62.22,27.33-63.43c-2-4.2-41.72-12.89-53.2-30.48-12.16-18.62,6.55-48.34,6.55-48.34l38.76.89s-3.36,22.7-1.93,24.5c.94,1.2,52.15,21.49,58.39,34.61C287.59,310.39,247.29,390.62,247.29,390.62Z" style="fill: rgb(69, 90, 100); transform-origin: 225.85px 310.495px;" id="eliitbikvb5d" class="animable"></path><path d="M280.36,297.33a19.28,19.28,0,0,0-1.93-6,22.2,22.2,0,0,0-4.17-5.43,76.68,76.68,0,0,0-11.44-8.86A139,139,0,0,0,250,269.49c-4.47-2.35-9-4.51-13.65-6.57s-9.26-3.9-13.9-5.83l-2.19-.9c2.7-.46,5.4-1,8.1-1.47a.13.13,0,0,0,0-.25A40.81,40.81,0,0,0,213,257.09a.07.07,0,0,0,0,.14c2.31-.25,4.6-.6,6.89-1,4.18,1.85,8.34,3.75,12.5,5.66,4.49,2.06,9,4.18,13.33,6.49,8.67,4.58,17.19,9.62,24.77,15.87,3.44,2.83,6.56,6.12,7.9,10.46,1.25,4,.95,8.37.18,12.46a124.28,124.28,0,0,1-3.7,13.54q-2.36,7.59-4.93,15.11c-1.73,5-11.47,30.74-12.12,31.8-.1.15.15.31.26.17.77-1,15.69-38.13,17.28-43.27,1.45-4.73,2.95-9.49,4.06-14.32A34.19,34.19,0,0,0,280.36,297.33Z" style="fill: rgb(38, 50, 56); transform-origin: 246.762px 311.151px;" id="elpny28f09dmj" class="animable"></path><path d="M236.35,304.76a25.12,25.12,0,0,0-3.95-1.6l-4.46-1.72-8.8-3.38c-5.63-2.17-11.3-4.27-16.9-6.54-9.54-3.87-19.64-9.36-23.42-19.6a19.49,19.49,0,0,1-1.2-7.38,56,56,0,0,1,1.29-9.1,118.32,118.32,0,0,1,5-17.83c.53-1.43,1.11-2.83,1.7-4.23a.07.07,0,0,0-.13-.06,124.39,124.39,0,0,0-5.93,17.24q-1.14,4.41-1.93,8.89a28.29,28.29,0,0,0-.49,8.31c1.27,10.1,9.73,17.21,18.31,21.48,5.29,2.63,10.9,4.59,16.4,6.7l17.37,6.65,4.35,1.66c1.17.45,3.36.87,3.29,2.49a5.29,5.29,0,0,1-.59,1.84l-1,2.25-2,4.37q-3.83,8.52-7.63,17.05c-5.11,11.45-5.85,13.08-10.9,24.56l-1.88,4.27a.07.07,0,0,0,.12.06c5.18-11.42,6.2-12.92,11.36-24.34q3.9-8.62,7.72-17.29,1.91-4.26,3.79-8.53a18.23,18.23,0,0,0,1.53-3.79A2.22,2.22,0,0,0,236.35,304.76Z" style="fill: rgb(38, 50, 56); transform-origin: 207.226px 297.22px;" id="el9kysc2nl27t" class="animable"></path><path d="M248.23,380c-2.43-1.16-4.84-2.38-7.31-3.43s-5-2.06-7.49-3q-7.47-2.94-15-5.6c-2.85-1-5.73-1.92-8.56-3-.08,0-.11.12,0,.15,5.1,1.86,10.11,4,15.14,6.07s9.85,4,14.8,6c2.78,1.1,5.6,2.05,8.41,3.08C248.26,380.27,248.34,380,248.23,380Z" style="fill: rgb(38, 50, 56); transform-origin: 229.042px 372.62px;" id="elk75bfgep51" class="animable"></path><path d="M186.84,257a54.63,54.63,0,0,0,6.82-2.07,11.63,11.63,0,0,0,5.09-2.88c2.62-3,3-7.31,2.93-11.1,0-.09.16-.09.16,0,.3,4.08,1.06,8.67-1.87,12.06a10.82,10.82,0,0,1-5.55,3.08,37.76,37.76,0,0,1-7.55,1.08A.09.09,0,1,1,186.84,257Z" style="fill: rgb(38, 50, 56); transform-origin: 194.448px 249.031px;" id="el25dhzeltfup" class="animable"></path><path d="M209.67,300.27a91.15,91.15,0,0,1-10.33-4,87.62,87.62,0,0,1-9.81-5.2,54,54,0,0,1-8.89-6.69c-2.65-2.57-5.12-5.55-6.2-9.12a18.74,18.74,0,0,0,2.9,4.64,32.07,32.07,0,0,0,3.82,3.91,67.51,67.51,0,0,0,8.89,6.41c3.12,1.94,6.35,3.68,9.62,5.36q2.46,1.26,5,2.41C206.29,298.78,208,299.53,209.67,300.27Z" style="fill: rgb(38, 50, 56); transform-origin: 192.055px 287.765px;" id="el6e2f8c2p5v8" class="animable"></path><path d="M218.61,192.69c19.2-4.94,43.22-18.15,45.7-24.38,3.1-7.81,4.89-22.33,6.05-42,.23-3.83-28-9.9-28.14-5.8-.35,9.15-.43,32.57-1.5,37.14C240,160.9,223.47,174,212.54,184,200.25,195.38,208,195.41,218.61,192.69Z" style="fill: rgb(211, 118, 106); transform-origin: 238.309px 156.659px;" id="elo7wlst5liiq" class="animable"></path><path d="M273.56,104.88c.67,6.35-2.64,22.93-4.8,25.85s-22.3-3.61-23.82-7-5.18-24-1.66-29.48S272.87,98.3,273.56,104.88Z" style="fill: rgb(211, 118, 106); transform-origin: 257.723px 112.04px;" id="eldp7ubq11g0i" class="animable"></path><path d="M239.56,103.78c2,2.69,4.05-1.26,4.05-1.26s-1.52,6.39,1.66,8.35,5.33-3,5.5-3.32c-.08.34-1.32,6.25,2.08,7.89s5-3.56,5.06-3.9c0,.35.46,4.87,3.33,5.53,4.93,1.14,4.14-10.46,7-13.43,0,0,5.23,1.63,5.42,1.72,0,0-.18-8.49-4.41-12.07a3.54,3.54,0,0,0-4.42-.18s.22-3.58-2.42-5c-1.35-.71-3.69.83-3.69.83a4.44,4.44,0,0,0-2.36-4c-1.93-.87-4,.82-4,.82s-1.23-2.79-3.49-3C244.3,82.29,235.18,98,239.56,103.78Z" style="fill: rgb(211, 118, 106); transform-origin: 256.03px 99.9491px;" id="elk8cgw9xettb" class="animable"></path><path d="M252,86.05a0,0,0,1,0-.07-.06,31.45,31.45,0,0,0-8.43,16.73c0,.2.28.34.36.12A64.56,64.56,0,0,1,252,86.05Z" style="fill: rgb(38, 50, 56); transform-origin: 247.75px 94.4708px;" id="elupoc8mbi1m" class="animable"></path><path d="M258.7,88.89c0-.06-.06-.13-.11-.08-4.36,4.6-7.91,11.65-8.06,18.83,0,.25.23.47.26.19C251.25,103.07,255.33,93.69,258.7,88.89Z" style="fill: rgb(38, 50, 56); transform-origin: 254.615px 98.3768px;" id="elcxvnzw8k3ah" class="animable"></path><path d="M258.07,112.05c.41-6.88,3-12.93,6.53-18.76,0-.08-.07-.14-.13-.08-2.5,2.38-4.37,6.33-5.56,9.53a18.11,18.11,0,0,0-1.08,9.29C257.85,112.16,258.06,112.19,258.07,112.05Z" style="fill: rgb(38, 50, 56); transform-origin: 261.119px 102.664px;" id="el9trigk4mz77" class="animable"></path><path d="M243.61,102.52a20.87,20.87,0,0,0-.19,3.78,6.9,6.9,0,0,0,1,3.49,2.31,2.31,0,0,0,1.33.95,3.3,3.3,0,0,0,1.68,0,4.08,4.08,0,0,0,2.36-2.3l1.14-2.53-.19,2.77a11.24,11.24,0,0,0,.32,3.66,4.07,4.07,0,0,0,1.91,2.72,2.33,2.33,0,0,0,2.89-.46,7,7,0,0,0,1.56-3.15l.79-3.19.3,3.26a10.65,10.65,0,0,0,.59,2.66,4.34,4.34,0,0,0,1.43,2.09,2.09,2.09,0,0,0,2.2.18,4.74,4.74,0,0,0,1.59-2,36.85,36.85,0,0,0,1.78-5.41c.26-.93.52-1.86.82-2.78a6.82,6.82,0,0,1,1.33-2.56,7.28,7.28,0,0,0-1.07,2.64c-.23.92-.42,1.87-.61,2.81a30.94,30.94,0,0,1-1.53,5.63,5.39,5.39,0,0,1-1.83,2.5,3,3,0,0,1-3.25-.13,5.47,5.47,0,0,1-1.85-2.55,11.94,11.94,0,0,1-.7-3l1.09.07a8.12,8.12,0,0,1-1.81,3.74,3.33,3.33,0,0,1-2,1.06,3.76,3.76,0,0,1-2.21-.42,5.14,5.14,0,0,1-2.43-3.44,12.44,12.44,0,0,1-.29-4l1,.24a4.81,4.81,0,0,1-3.07,2.69,4,4,0,0,1-2.07-.08,3,3,0,0,1-1.65-1.28,7.09,7.09,0,0,1-.77-3.83A16.56,16.56,0,0,1,243.61,102.52Z" style="fill: rgb(38, 50, 56); transform-origin: 255.713px 110.108px;" id="elrl4yvd886dr" class="animable"></path><path d="M244.53,125.16S225.37,99,239.7,96.74c3.46-.55,18.1,3.22,17.47,6.17-.81,3.8-7.17,3.51-11.14,2.7,0,0,5.63,7.42,1.64,12.88A18.48,18.48,0,0,0,244.53,125.16Z" style="fill: rgb(211, 118, 106); transform-origin: 245.785px 110.923px;" id="elx81nzalbcs" class="animable"></path><path d="M238.72,96.85a14.28,14.28,0,0,1,4.13-.1,31.41,31.41,0,0,1,4.09.67,47.92,47.92,0,0,1,7.94,2.46,7.58,7.58,0,0,1,1.9,1.12,3,3,0,0,1,.79,1,2.11,2.11,0,0,1,.19.67,2,2,0,0,1,0,.69,3.51,3.51,0,0,1-1.32,2,6.52,6.52,0,0,1-2,1,12.35,12.35,0,0,1-4.26.35,27.3,27.3,0,0,1-4.15-.6l.47-.77a17.78,17.78,0,0,1,1.58,2.77,16.64,16.64,0,0,1,1,3,11.07,11.07,0,0,1,.22,3.14,7.92,7.92,0,0,1-.81,3,9.16,9.16,0,0,0,.48-3,11.18,11.18,0,0,0-.48-3,15,15,0,0,0-1.14-2.79,16.32,16.32,0,0,0-1.62-2.51l-.77-1,1.24.19a28.78,28.78,0,0,0,4,.45,12,12,0,0,0,3.89-.36c1.19-.35,2.36-1.08,2.57-2.12.26-.89-1-1.7-2.18-2.24a38.69,38.69,0,0,0-3.76-1.49c-1.29-.45-2.58-.89-3.89-1.26A26.51,26.51,0,0,0,238.72,96.85Z" style="fill: rgb(38, 50, 56); transform-origin: 248.255px 106.948px;" id="elje48s9ajm3" class="animable"></path><path d="M257.68,177.29l-26.9-10.4s-10.4,8.82-19.37,17.3-8.57,13,6.3,8.88S249.56,184,257.68,177.29Z" style="fill: #EF5354; transform-origin: 231.561px 180.752px;" id="elcrhlwbkkmlm" class="animable"></path><path d="M250.44,181.83c-2,1-4.11,1.95-6.38,2.86l-23.61-8.78c1.48-1.33,2.89-2.57,4.16-3.68Z" style="fill: rgb(55, 71, 79); transform-origin: 235.445px 178.46px;" id="elapp4pk9pyfh" class="animable"></path><path d="M255.27,179.06c-.68.46-1.4.91-2.16,1.34l-26.55-9.88,1.73-1.49Z" style="fill: rgb(55, 71, 79); transform-origin: 240.915px 174.715px;" id="elxag603efu0p" class="animable"></path><path d="M230,170.12a25.14,25.14,0,0,0,2.76,1.22c.92.39,1.84.8,2.77,1.18,1.79.73,3.59,1.41,5.41,2.07A111.62,111.62,0,0,0,252,178.13c.08,0,.11-.1,0-.13-3.67-1.42-7.41-2.67-11.11-4l-5.46-2c-.91-.33-1.82-.64-2.73-1s-1.81-.76-2.74-1C229.92,170,229.91,170.1,230,170.12Z" style="fill: rgb(38, 50, 56); transform-origin: 241.001px 174.065px;" id="elfwfnwp83wi9" class="animable"></path><g id="el5t9nu23oc5"><path d="M227.91,190.16c-3.42,1-6.86,2-10.19,2.91-14.87,4.12-15.29-.39-6.31-8.88l1.36-1.28Z" style="opacity: 0.1; transform-origin: 216.676px 188.763px;" class="animable" id="el4cmlz92l04t"></path></g><path d="M233,242s-56.32,3.86-58.23,3c0,0,6.9-27,16.12-48.23,9.87-22.71,22-16.17,26.2-12.36,5,4.52,14.7,21.21,15.36,24.41,1.08,5.29-3.5,11.13-3.5,11.13Z" style="fill: #EF5354; transform-origin: 203.885px 212.822px;" id="el7vhkgwtv2nq" class="animable"></path><path d="M211.13,219.41a47.86,47.86,0,0,1,7.18.48c1.18.18,2.35.42,3.51.68.58.13,1.17.24,1.75.35a7.72,7.72,0,0,0,1.86.17s.06.07,0,.08a12.9,12.9,0,0,1-1.75.14,13.92,13.92,0,0,1-1.71-.15c-1.2-.18-2.39-.41-3.59-.6-2.41-.37-4.83-.75-7.26-.95A.1.1,0,0,1,211.13,219.41Z" style="fill: rgb(38, 50, 56); transform-origin: 218.241px 220.359px;" id="el8n6ahbdcdku" class="animable"></path><path d="M205.44,222.09a53.41,53.41,0,0,1,5.88-.86c1-.08,2-.11,3-.11l1.42,0c.52,0,1,.11,1.56.11.06,0,.07.09,0,.09-.49,0-1,.1-1.47.13l-1.48.1c-1,.08-2,.16-3,.22-2,.12-3.94.27-5.91.46A.08.08,0,0,1,205.44,222.09Z" style="fill: rgb(38, 50, 56); transform-origin: 211.374px 221.675px;" id="elm9i3hu8174" class="animable"></path><path d="M231.57,234.35l-54.8,3.17c.43-1.49.91-3.17,1.46-5l52.45-3Z" style="fill: rgb(55, 71, 79); transform-origin: 204.17px 233.52px;" id="elfrxoxl214cd" class="animable"></path><path d="M232.34,238.59l-56.78,3.28c.17-.6.36-1.29.56-2.05L232,236.6Z" style="fill: rgb(55, 71, 79); transform-origin: 203.95px 239.235px;" id="eldvy3p3gc58l" class="animable"></path><path d="M225,207.05c.28,4-3.57,7.54-8.6,7.89s-9.33-2.61-9.61-6.62,3.57-7.54,8.6-7.89S224.69,203,225,207.05Z" style="fill: rgb(55, 71, 79); transform-origin: 215.895px 207.685px;" id="elkym5y6d3dkh" class="animable"></path><path d="M285.8,82.79l-.4,4.91v.08c-.38,10-5.18,30-5.73,32.25l-1.11,4.62-40.91-1.44a5.61,5.61,0,0,1-.59-.06,2.89,2.89,0,0,1-.44-.07,4.67,4.67,0,0,1-.5-.14,2.43,2.43,0,0,1-.38-.13l-.18-.07a3,3,0,0,1-.31-.15,2.93,2.93,0,0,1-.39-.21,4.17,4.17,0,0,1-.44-.29c-.13-.09-.25-.19-.37-.29l-.11-.09a4.17,4.17,0,0,1-.36-.37,4.71,4.71,0,0,1-.36-.42,3.81,3.81,0,0,1-.29-.41,1.3,1.3,0,0,1-.1-.15c-.05-.11-.11-.21-.17-.32a2.11,2.11,0,0,1-.17-.38,1.83,1.83,0,0,1-.14-.32c0-.11-.07-.21-.1-.33a.58.58,0,0,1-.05-.14c0-.13-.06-.26-.08-.38s0-.17-.05-.26c-.57-3.83-3.4-23.12-3.24-27.46.11-3.13,2.08-5.47,4.38-7.26l.94-26.66c.33-9.08,6-13.62,11.43-13.43s10.88,5.13,10.55,14.21l-.38,10.76a11.11,11.11,0,0,1,4.11,1.49,11,11,0,0,1,5.31-1.13,4,4,0,0,1,.49,0,10.81,10.81,0,0,1,6.22,2.6,10.54,10.54,0,0,1,3.41-.42,4.19,4.19,0,0,1,.5,0A10.94,10.94,0,0,1,285.8,82.79Z" style="fill: #EF5354; transform-origin: 257.333px 84.0321px;" id="elvqkc4xrjate" class="animable"></path><path d="M269.91,81.42a.45.45,0,0,1-.16,0l-.1,0a.68.68,0,0,1-.5-.82.67.67,0,0,1,.81-.49l.17,0a.67.67,0,0,1-.22,1.32Z" style="fill: rgb(255, 255, 255); transform-origin: 269.893px 80.7625px;" id="el1j74dsagfklj" class="animable"></path><path d="M259.17,80.87a.67.67,0,0,1-.65-.69l0-.82a4.53,4.53,0,0,0-.09-1l-.2-1,1.73.37a.67.67,0,0,1-.1,1.32,2.54,2.54,0,0,1,0,.39l0,.82A.66.66,0,0,1,259.17,80.87Z" style="fill: rgb(255, 255, 255); transform-origin: 259.353px 79.1154px;" id="elijqk4sejp7j" class="animable"></path><path d="M253.63,93.36a5.53,5.53,0,0,1-1.62-.3.67.67,0,1,1,.43-1.27,4.24,4.24,0,0,0,1.23.22,4.44,4.44,0,0,0,4.55-3.9.66.66,0,0,1,.74-.59.67.67,0,0,1,.6.74A5.8,5.8,0,0,1,253.63,93.36Z" style="fill: rgb(255, 255, 255); transform-origin: 255.559px 90.4386px;" id="elz3ey9aczvem" class="animable"></path><path d="M238.92,87.31a.67.67,0,0,1-.65-.69l1-29.58c.21-5.95,3.3-8.56,6.08-8.46s5.77,3.18,5.57,8.87l-.65,18.2.78.15-.6.85a4.44,4.44,0,0,0-.8,2.4l-.1,2.84a.68.68,0,0,1-1.35,0l.1-2.84a5.72,5.72,0,0,1,.6-2.35l.68-19.25c.17-4.8-2-7.4-4.28-7.48s-4.51,2.14-4.69,7.16l-1,29.58A.66.66,0,0,1,238.92,87.31Z" style="fill: rgb(255, 255, 255); transform-origin: 244.66px 67.944px;" id="elk0a9g9okxht" class="animable"></path><path d="M274.52,119.34,237.83,118a.67.67,0,1,1,0-1.34L273.47,118c.81-3.38,5.12-21.91,5.42-30.49v-.11a.66.66,0,0,1,.69-.64.67.67,0,0,1,.65.69v.1c-.34,9.55-5.37,30.41-5.59,31.3Z" style="fill: rgb(255, 255, 255); transform-origin: 258.695px 103.05px;" id="elpxjyrk4kckg" class="animable"></path><path d="M259.09,78.86a.67.67,0,0,1-.63-.54,4.47,4.47,0,0,0-1.09-2.14,4.52,4.52,0,0,0-3.09-1.4,4.44,4.44,0,0,0-3.78,1.88.67.67,0,0,1-.94.15.68.68,0,0,1-.16-.94,5.78,5.78,0,0,1,10.38,2.19.67.67,0,0,1-.53.79A.43.43,0,0,1,259.09,78.86Z" style="fill: rgb(255, 255, 255); transform-origin: 254.536px 76.1476px;" id="el4vjet1gwmoh" class="animable"></path><path d="M263.87,93.82l-.26,0a5.82,5.82,0,0,1-5.3-5.69V87.8l.23-.2a4.83,4.83,0,0,0,1.87-3.68,3.84,3.84,0,0,0-1.27-2.9l-.25-.23.13-1.58a4.9,4.9,0,0,1,.19-1,5.77,5.77,0,0,1,11.33,1.73l-.07.87-.63,7.75A5.8,5.8,0,0,1,263.87,93.82Zm-4.2-5.43a4.43,4.43,0,0,0,8.83,0l.69-8.36v-.2a4.43,4.43,0,0,0-4.05-4.58,4.37,4.37,0,0,0-4.63,3.25,3.86,3.86,0,0,0-.15.79l-.08.94a5.25,5.25,0,0,1,1.48,3.68A6.22,6.22,0,0,1,259.67,88.39Z" style="fill: rgb(255, 255, 255); transform-origin: 264.427px 83.8966px;" id="elvk8k60bfk1k" class="animable"></path><path d="M274,96l-.27,0a5.77,5.77,0,0,1-5.28-6.23l.69-8.36a5.77,5.77,0,0,1,6.22-5.28,5.79,5.79,0,0,1,5.28,6.23L280,90.73A5.8,5.8,0,0,1,274,96Zm1-18.56a4.43,4.43,0,0,0-4.56,4.06l-.69,8.37a4.44,4.44,0,0,0,4.05,4.77,4.45,4.45,0,0,0,4.78-4l.68-8.36a4.43,4.43,0,0,0-4.05-4.78Z" style="fill: rgb(255, 255, 255); transform-origin: 274.544px 86.0576px;" id="elhv4eth5j7gf" class="animable"></path><path d="M237.83,118a.67.67,0,0,1-.64-.57c-.14-.92-3.34-22.51-3.2-26.52,0-1.41,1.55-3,4.6-4.88a71.71,71.71,0,0,1,10.09-4.83,51.29,51.29,0,0,1,7.11-2.35,4.83,4.83,0,0,1,3.79.76,2.54,2.54,0,0,1,.47.39,5.18,5.18,0,0,1,1.71,3.89,6.32,6.32,0,0,1-2.33,4.68l-.19.15a8.73,8.73,0,0,1-1.14.82c-1.68,1-3.74,2.29-5.52,3.42l-3.48,2.17c1.5,1.23,4.65,4.18,5.19,7.69.68,4.46-1.44,9.76-1.53,10a.68.68,0,0,1-.88.37.67.67,0,0,1-.37-.87c0-.06,2.07-5.19,1.45-9.28s-5.37-7.37-5.42-7.4l-.83-.58,5.16-3.22c1.78-1.13,3.85-2.4,5.52-3.42a8,8,0,0,0,1.06-.77l.53.44-.44-.51a4.83,4.83,0,0,0,1.87-3.68,3.84,3.84,0,0,0-1.27-2.9,1.87,1.87,0,0,0-.3-.25,3.5,3.5,0,0,0-2.78-.56,49.07,49.07,0,0,0-6.89,2.28,70.5,70.5,0,0,0-9.88,4.73c-3.53,2.17-3.94,3.37-4,3.78-.13,3.88,3.15,26.05,3.19,26.27a.67.67,0,0,1-.57.76Z" style="fill: rgb(255, 255, 255); transform-origin: 247.873px 98.375px;" id="ely0o60u34my" class="animable"></path><path d="M258.15,107.49l-.74,0a.84.84,0,0,1,.09-1.68l1,0,.63-2.78-.93-.05a.84.84,0,1,1,.09-1.68l1.23.07.42-1.91a.83.83,0,0,1,.88-.65.87.87,0,0,1,.79,1l-.38,1.62,2.53.14.43-1.91a.85.85,0,0,1,.9-.65.86.86,0,0,1,.77,1l-.37,1.62.75,0a.84.84,0,1,1-.1,1.68l-1-.06-.64,2.79.92,0a.84.84,0,0,1,.8.88.86.86,0,0,1-.89.8l-1.21-.07-.45,2a.83.83,0,0,1-.87.65.85.85,0,0,1-.79-1l.4-1.68-2.54-.14-.44,2a.87.87,0,0,1-.9.65.83.83,0,0,1-.77-1Zm4.63-1.44.64-2.78-2.52-.14-.64,2.79Z" style="fill: rgb(255, 255, 255); transform-origin: 261.823px 104.555px;" id="elado0jztk1n" class="animable"></path><path d="M272,100.4l-.52,9.53a.9.9,0,0,1-1,.84.88.88,0,0,1-.84-.94l.43-8-.66.34a.86.86,0,0,1-1.2-.39.86.86,0,0,1,.36-1.19l2.05-1.07s0,0,.07,0,0,0,.08-.05H271a.26.26,0,0,1,.12,0h.18s0,0,.06,0,.06,0,.09,0a.1.1,0,0,1,.07,0s.06,0,.09,0l.06.05.07,0s0,0,.06.07a.43.43,0,0,1,0,.07l.06.07,0,0s0,0,0,0a.13.13,0,0,1,0,.08s0,.07,0,.08,0,.07,0,.09,0,.08,0,.11Z" style="fill: rgb(255, 255, 255); transform-origin: 270.049px 105.119px;" id="elfphlrcnur2e" class="animable"></path><path d="M201.39,193.47c-11.19,8.32-28.74,21.19-36.73,22.47-8.87,1.41-23.38-21.45-33-35.52-1.92-2.8,18.88-19,20.78-16,5,8.08,14.65,26.12,16.76,26.49,1.72.3,16.2-4.49,25.94-6.82C210.6,180.41,209.26,187.61,201.39,193.47Z" style="fill: rgb(211, 118, 106); transform-origin: 169.324px 190.027px;" id="eli8iysmdt09" class="animable"></path><path d="M122.55,170.28c2.25,5.37,11.15,14.54,14.15,15.93S155.79,173,155.52,169.6s-9.25-20.85-14.47-23.69S120.21,164.73,122.55,170.28Z" style="fill: rgb(211, 118, 106); transform-origin: 138.918px 165.979px;" id="elgnxb8wahqpb" class="animable"></path><path d="M148.2,151.88c-.45,3.05-3.79.78-3.79.78s4,4.43,2.34,7.4-5.56,0-5.85-.24c.21.23,3.8,4.4,1.8,7.21s-5.52-.67-5.75-.9c.13.29,1.77,4.09-.23,5.88-3.44,3.07-7.89-6.54-11.45-7.68,0,0-2.61,5.8-2.72,5.95,0,0-4.42-9.05-2.62-13.76a3.23,3.23,0,0,1,3.45-2.09s-1.75-2.76-.25-5c.77-1.16,3.31-.95,3.31-.95a4,4,0,0,1,.16-4.2c1.16-1.54,3.52-1.09,3.52-1.09s-.24-2.76,1.46-3.95C135,136.81,149.16,145.35,148.2,151.88Z" style="fill: rgb(211, 118, 106); transform-origin: 133.873px 155.714px;" id="elq5eqy351sr" class="animable"></path><path d="M130.51,143.18s0-.1,0-.08a28.74,28.74,0,0,1,14.07,9.66c.11.15-.08.39-.24.25A58.7,58.7,0,0,0,130.51,143.18Z" style="fill: rgb(38, 50, 56); transform-origin: 137.561px 148.075px;" id="elu8q019ti4s" class="animable"></path><path d="M126.39,148.39c-.06,0,0-.13.06-.11a27,27,0,0,1,14.69,11.5c.11.19,0,.48-.13.27C138.55,156.45,131.19,150.75,126.39,148.39Z" style="fill: rgb(38, 50, 56); transform-origin: 133.775px 154.201px;" id="elx3bfhj7oz9" class="animable"></path><path d="M137.05,166.61c-3.35-5.31-8.06-9-13.44-12.12-.07,0,0-.14.06-.12,3,.8,6.27,3.14,8.63,5.17a16.53,16.53,0,0,1,4.93,7C137.27,166.6,137.12,166.72,137.05,166.61Z" style="fill: rgb(38, 50, 56); transform-origin: 130.409px 160.511px;" id="elwjxceq55km" class="animable"></path><path d="M144.41,152.66a19,19,0,0,1,1.81,2.93,6.35,6.35,0,0,1,.78,3.21,2.09,2.09,0,0,1-.65,1.34,3,3,0,0,1-1.35.71,3.68,3.68,0,0,1-2.89-.79l-2-1.53,1.36,2.13a10.41,10.41,0,0,1,1.36,3.07,3.74,3.74,0,0,1-.34,3,2.13,2.13,0,0,1-2.51.9,6.41,6.41,0,0,1-2.62-1.83l-2-2.21,1.19,2.74a9.71,9.71,0,0,1,.69,2.38A4,4,0,0,1,137,171a1.9,1.9,0,0,1-1.68,1.1,4.18,4.18,0,0,1-2.16-.92,33.32,33.32,0,0,1-3.8-3.55c-.61-.62-1.23-1.25-1.88-1.85a6.32,6.32,0,0,0-2.18-1.47,6.62,6.62,0,0,1,2,1.64c.6.64,1.16,1.31,1.72,2a28.29,28.29,0,0,0,3.69,3.82,4.93,4.93,0,0,0,2.56,1.2,2.72,2.72,0,0,0,2.54-1.53,5,5,0,0,0,.35-2.85,10.72,10.72,0,0,0-.73-2.66l-.84.53a7.43,7.43,0,0,0,3.09,2.19,3,3,0,0,0,2.07,0,3.49,3.49,0,0,0,1.58-1.3,4.68,4.68,0,0,0,.43-3.81,11.6,11.6,0,0,0-1.54-3.35l-.66.61a4.38,4.38,0,0,0,3.63.8,3.7,3.7,0,0,0,1.63-1,2.65,2.65,0,0,0,.75-1.75,6.41,6.41,0,0,0-1.06-3.39A15.34,15.34,0,0,0,144.41,152.66Z" style="fill: rgb(38, 50, 56); transform-origin: 136.435px 162.816px;" id="elj2hkd909p3p" class="animable"></path><path d="M154.52,166.36s.17-24.69-9.51-20c-2.88,1.38-13,10.51-11.25,12.58,2.31,2.68,7.27-.33,10.07-2.72,0,0-1.24,8.39,4.35,11A6.13,6.13,0,0,0,154.52,166.36Z" style="fill: rgb(211, 118, 106); transform-origin: 144.039px 156.753px;" id="elwbzpqsijhd" class="animable"></path><path d="M145.83,146a13.1,13.1,0,0,0-3.34,1.73,27.94,27.94,0,0,0-3,2.33,43,43,0,0,0-5.26,5.44,7.2,7.2,0,0,0-1,1.73,2.59,2.59,0,0,0-.19,1.13,1.91,1.91,0,0,0,.13.62,2.16,2.16,0,0,0,.33.53,3.18,3.18,0,0,0,1.95,1,5.9,5.9,0,0,0,2.06-.12,11.35,11.35,0,0,0,3.56-1.59,27.58,27.58,0,0,0,3.05-2.29l-.72-.41a15.64,15.64,0,0,0,0,2.9,14.46,14.46,0,0,0,.49,2.83,9.6,9.6,0,0,0,1.2,2.6,7.47,7.47,0,0,0,2,2,8.33,8.33,0,0,1-1.7-2.19,10.14,10.14,0,0,1-.92-2.59,13.94,13.94,0,0,1-.32-2.73,14.41,14.41,0,0,1,.19-2.72l.2-1.1-.91.7a28.06,28.06,0,0,1-3,2.12,11.21,11.21,0,0,1-3.27,1.41,3.1,3.1,0,0,1-3-.56c-.6-.6.07-1.8.76-2.75a36.45,36.45,0,0,1,2.35-2.84c.83-.93,1.67-1.84,2.55-2.71A24.36,24.36,0,0,1,145.83,146Z" style="fill: rgb(38, 50, 56); transform-origin: 140.063px 156.215px;" id="el1zvly871g1r" class="animable"></path><path d="M167.7,217.27,174.43,189s12.24-3.33,24.26-6.16,14.61,1.06,3,11.22S177.77,214.17,167.7,217.27Z" style="fill: #EF5354; transform-origin: 188.437px 199.606px;" id="elmvaah6wrcnb" class="animable"></path><path d="M187.41,185.6l-5.48,24.23c-2,1.36-3.94,2.6-5.85,3.68l6-26.55Z" style="fill: rgb(55, 71, 79); transform-origin: 181.745px 199.555px;" id="elx7sms0xd78" class="animable"></path><path d="M179.6,187.61l-6.17,27.31c-.78.39-1.54.75-2.3,1.07l6.28-27.8Z" style="fill: rgb(55, 71, 79); transform-origin: 175.365px 201.8px;" id="elkh3i0ddntn" class="animable"></path><path d="M190.46,203.91a6.73,6.73,0,0,0,3.59-1.66s0-.07,0-.05a13.93,13.93,0,0,1-3.23,1.44l1.15-.95c1.38-1.14,1.7-1.4,3-2.65,0,0,0-.09,0-.07-2.57,1.73-4.91,3.59-7.39,5.48-.66.5-.83,1.48.88.09Z" style="fill: rgb(38, 50, 56); transform-origin: 191.04px 203.111px;" id="el9o82gca0kac" class="animable"></path><path d="M177,190.16a24.88,24.88,0,0,1-.5,3c-.18,1-.34,2-.54,3-.37,1.9-.79,3.79-1.24,5.67-.9,3.77-1.86,7.54-3.13,11.21a.07.07,0,0,1-.14,0c.83-3.85,1.84-7.66,2.76-11.49.45-1.88.89-3.76,1.34-5.64.23-1,.47-1.88.69-2.83s.36-1.93.67-2.83C176.88,190.08,177,190.11,177,190.16Z" style="fill: rgb(38, 50, 56); transform-origin: 174.225px 201.615px;" id="el3xa59z8ubxi" class="animable"></path><path d="M203.54,185c.34,1,5.85,7.14,10.5,6.47,1.51-.22.66-8.53.66-8.53l.08-.62,1.09-8.79L205.14,168l-1.54-.71s-.14,2.42-.28,5.44c0,.14,0,.28,0,.43a4.15,4.15,0,0,0,0,.49c0,.45-.06.91-.07,1.37s0,.69,0,1,0,.73,0,1.1A55.79,55.79,0,0,0,203.54,185Z" style="fill: rgb(211, 118, 106); transform-origin: 209.544px 179.405px;" id="eltf2e6ff0it" class="animable"></path><path d="M203.32,172.76a17.76,17.76,0,0,0,11.46,9.55l1.09-8.79L205.14,168l-1.54-.71S203.46,169.74,203.32,172.76Z" style="fill: rgb(38, 50, 56); transform-origin: 209.595px 174.8px;" id="elqpbi2x6r2ia" class="animable"></path><path d="M227,159c2.52,15.32-6.38,18.56-9.68,19.1-3,.48-13.28,1.77-17.36-13.21s2.24-21,9-22.48S224.49,143.65,227,159Z" style="fill: rgb(211, 118, 106); transform-origin: 213.057px 160.204px;" id="eln7mdeqhczn" class="animable"></path><path d="M223.62,155.87a9.76,9.76,0,0,1-1.08-.05,1.75,1.75,0,0,1-1.09-.27.56.56,0,0,1-.1-.67,1.38,1.38,0,0,1,1.29-.53,2,2,0,0,1,1.36.51A.59.59,0,0,1,223.62,155.87Z" style="fill: rgb(38, 50, 56); transform-origin: 222.729px 155.103px;" id="elok27ee8ptlm" class="animable"></path><path d="M213.67,159.16c.35-.12.65-.28,1-.43a1.71,1.71,0,0,0,.93-.62.57.57,0,0,0-.14-.67,1.38,1.38,0,0,0-1.39-.05,2.07,2.07,0,0,0-1.11,1A.6.6,0,0,0,213.67,159.16Z" style="fill: rgb(38, 50, 56); transform-origin: 214.292px 158.201px;" id="el6x8sz1uerko" class="animable"></path><path d="M225.41,159.41a2.88,2.88,0,0,0-.88,0,3.14,3.14,0,0,0-.89.22,2.74,2.74,0,0,0-.79.53,2.15,2.15,0,0,0-.5.85l-.19.57.58-.17a6,6,0,0,1,1.26-.24,2.74,2.74,0,0,1,1.31.19,2,2,0,0,0-1.29-.66,3.68,3.68,0,0,0-1.47.1l.4.4a2.11,2.11,0,0,1,.94-1.09A6.35,6.35,0,0,1,225.41,159.41Z" style="fill: rgb(38, 50, 56); transform-origin: 223.785px 160.478px;" id="el49fk6ea1wqa" class="animable"></path><path d="M224.16,162.08a5.34,5.34,0,0,1-1.37-.25c-.1,0-.51-.23-.51-.31a2.75,2.75,0,0,1,.11-.68,1.73,1.73,0,0,0-.24.68.89.89,0,0,0,.57.51A2.84,2.84,0,0,0,224.16,162.08Z" style="fill: rgb(38, 50, 56); transform-origin: 223.155px 161.495px;" id="ellgpf8acur5j" class="animable"></path><path d="M212.73,162a3.08,3.08,0,0,1,.76-.46,3.25,3.25,0,0,1,.88-.22,2.37,2.37,0,0,1,.95.09,2.15,2.15,0,0,1,.85.5l.43.42-.59.12a6.91,6.91,0,0,0-1.22.39,2.68,2.68,0,0,0-1,.79,1.92,1.92,0,0,1,.81-1.19,3.72,3.72,0,0,1,1.34-.61l-.16.54a2.16,2.16,0,0,0-1.35-.52A6.8,6.8,0,0,0,212.73,162Z" style="fill: rgb(38, 50, 56); transform-origin: 214.665px 162.468px;" id="elq3vmp2y8our" class="animable"></path><path d="M215.1,163.77a5.66,5.66,0,0,0,1.09-.86c.07-.09.34-.46.3-.52a3.09,3.09,0,0,0-.42-.55,1.79,1.79,0,0,1,.54.49.93.93,0,0,1-.27.72A2.82,2.82,0,0,1,215.1,163.77Z" style="fill: rgb(38, 50, 56); transform-origin: 215.856px 162.805px;" id="el82kukeltxyp" class="animable"></path><path d="M217.26,169.47c.27.23.55.55.94.55a2.73,2.73,0,0,0,1.12-.36s.07,0,.06.05a1.45,1.45,0,0,1-1.31.69,1.12,1.12,0,0,1-.91-.87C217.14,169.47,217.22,169.44,217.26,169.47Z" style="fill: rgb(38, 50, 56); transform-origin: 218.269px 169.93px;" id="elgk4eyl8aogn" class="animable"></path><path d="M221.14,165s.44,1.55.55,2.29c0,.07-.17.13-.42.18h0a3.55,3.55,0,0,1-3.62-.85c-.07-.06,0-.15.09-.11a5.46,5.46,0,0,0,3.37.47c0-.21-.84-2.63-.73-2.65a6.35,6.35,0,0,1,1.75.14c-.82-3.25-2.16-6.35-2.93-9.6,0-.12.14-.18.19-.08A54.11,54.11,0,0,1,223,165C223.07,165.46,221.46,165.11,221.14,165Z" style="fill: rgb(38, 50, 56); transform-origin: 220.312px 161.195px;" id="elq7ofztrbhpn" class="animable"></path><path d="M221.13,166.94a4.39,4.39,0,0,1-1.36,1.75,1.85,1.85,0,0,1-1.14.37c-.89,0-1.11-.76-1.13-1.46a4.87,4.87,0,0,1,.12-1.1A5.73,5.73,0,0,0,221.13,166.94Z" style="fill: rgb(38, 50, 56); transform-origin: 219.315px 167.78px;" id="elelod4m9rty" class="animable"></path><path d="M219.77,168.69a1.85,1.85,0,0,1-1.14.37c-.89,0-1.11-.76-1.13-1.46A2,2,0,0,1,219.77,168.69Z" style="fill: rgb(255, 154, 187); transform-origin: 218.635px 168.303px;" id="ely8o69mof1xi" class="animable"></path><path d="M216.86,145.24a6.91,6.91,0,0,1-.26,4c-1.73,3.46-5.92,2.48-7.38,3.83s-.94,4-2.18,5.24c-1.72,1.76-4,1-4.31,2.23s-1.16,5-2.71,5.5-8.19-25.2,11.91-24.08c0,0,2.79-1.11,7,1.15,4.9,2.61,6.81,10.58,6.81,10.58a6.67,6.67,0,0,0-1-1.05c-1-.87-1.32-1.67-2-2.23-1.11-.89-1.72-.57-2.87-1.44A13.17,13.17,0,0,1,216.86,145.24Z" style="fill: rgb(38, 50, 56); transform-origin: 211.734px 153.867px;" id="el60421od5oi7" class="animable"></path><path d="M216.57,144.13a14,14,0,0,1,.54,3.08,5.65,5.65,0,0,1-.48,3,4.15,4.15,0,0,1-2.34,1.76c-1,.34-2,.42-3,.81a3.24,3.24,0,0,0-1.37,1,4.28,4.28,0,0,0-.61,1.54,5.59,5.59,0,0,1-1.16,2.76,3.46,3.46,0,0,1-2.72,1.09c-1,0-2.13-.32-3.12.11,1-.34,2.05,0,3.11.13a3.78,3.78,0,0,0,3-1.06,5.7,5.7,0,0,0,1.33-2.92,3.67,3.67,0,0,1,.55-1.36,2.82,2.82,0,0,1,1.17-.82c.93-.37,2-.48,3-.84a5.77,5.77,0,0,0,1.45-.77,3.32,3.32,0,0,0,1.08-1.24,5.91,5.91,0,0,0,.38-3.18A13.74,13.74,0,0,0,216.57,144.13Z" style="fill: rgb(38, 50, 56); transform-origin: 209.881px 151.778px;" id="elb1j7lrbpnxu" class="animable"></path><path d="M216.94,145.05a11.1,11.1,0,0,0,.93,2.78,5.07,5.07,0,0,0,2,2.25,7.91,7.91,0,0,0,1.38.57,2.38,2.38,0,0,1,1.08.74,6.75,6.75,0,0,0,.85,1.2,3.15,3.15,0,0,0,1.27.77,3.79,3.79,0,0,1-1.09-.93,7.14,7.14,0,0,1-.71-1.25,2.54,2.54,0,0,0-1.23-1,8.61,8.61,0,0,1-1.3-.55,5.46,5.46,0,0,1-1.88-2A23.08,23.08,0,0,1,216.94,145.05Z" style="fill: rgb(38, 50, 56); transform-origin: 220.695px 149.205px;" id="eli6602cmjub" class="animable"></path><path d="M202.88,165.62s-3.75-4.57-5.85-3.2,1,8.18,3.62,9a2.63,2.63,0,0,0,3.4-1.68Z" style="fill: rgb(211, 118, 106); transform-origin: 200.194px 166.87px;" id="el2t0iyt1i4v" class="animable"></path><path d="M198,164.35a0,0,0,0,0,0,.07c1.86.59,2.94,2.19,3.74,3.88a1.45,1.45,0,0,0-2.2-.23.06.06,0,0,0,.06.09,1.62,1.62,0,0,1,1.81.43,7.32,7.32,0,0,1,1,1.37c.1.15.38,0,.31-.14l0,0C202.48,167.48,200.45,164.39,198,164.35Z" style="fill: rgb(38, 50, 56); transform-origin: 200.366px 167.186px;" id="elppndocglyn" class="animable"></path></g><g id="freepik--character-2--inject-81" class="animable" style="transform-origin: 362.001px 256.523px;"><path d="M450.06,439.7c-2.18.68-64.2-.62-66.53-2.17-.89-.58-1.22-9.62-1.32-20.56,0-2.36,0-4.8,0-7.28L378,376.5l41.46.75,3.1,33.17-.34,7.28s23.52,11.11,25.9,13.08S452.24,439,450.06,439.7Z" style="fill: rgb(235, 148, 129); transform-origin: 414.528px 408.193px;" id="el7ps5ra1ag52" class="animable"></path><path d="M450.06,439.7c-2.18.68-64.2-.62-66.53-2.17-1.08-.71-1.35-13.91-1.34-27.84l40.34.73-.34,7.28s23.52,11.11,25.9,13.08S452.24,439,450.06,439.7Z" style="fill: rgb(255, 255, 255); transform-origin: 416.619px 424.788px;" id="elyzw5ps81c" class="animable"></path><path d="M450.06,439.7c-2.18.68-64.2-.62-66.53-2.17-.89-.58-1.22-9.62-1.32-20.56l40,.73s23.52,11.11,25.9,13.08S452.24,439,450.06,439.7Z" style="fill: #EF5354; transform-origin: 416.632px 428.428px;" id="elmgu7rmeycrn" class="animable"></path><path d="M449.22,437.2c-10.39-.47-52.34-1.4-62.64-1.08-.09,0-.09.06,0,.06,10.29.7,52.25,1.29,62.65,1.19C449.44,437.37,449.44,437.21,449.22,437.2Z" style="fill: rgb(38, 50, 56); transform-origin: 417.949px 436.718px;" id="elkc6u20w2mgb" class="animable"></path><path d="M426.2,418.81c-4.16-.14-9,1.23-11.67,4.57-.1.13.08.28.21.22a57.56,57.56,0,0,1,11.52-4.27A.27.27,0,0,0,426.2,418.81Z" style="fill: rgb(38, 50, 56); transform-origin: 420.468px 421.207px;" id="els4x7rumr7tm" class="animable"></path><path d="M429.39,420.13c-4.16-.14-9,1.23-11.67,4.57-.11.13.08.28.2.22a57.65,57.65,0,0,1,11.53-4.27A.27.27,0,0,0,429.39,420.13Z" style="fill: rgb(38, 50, 56); transform-origin: 423.656px 422.527px;" id="el7e939u9yrdh" class="animable"></path><path d="M432.57,421.45c-4.16-.14-9,1.23-11.67,4.57-.1.13.09.28.21.22A57.56,57.56,0,0,1,432.63,422,.27.27,0,0,0,432.57,421.45Z" style="fill: rgb(38, 50, 56); transform-origin: 426.873px 423.847px;" id="elmqzwfa06l1" class="animable"></path><path d="M316,229s52.4,83.23,53.54,89c1.77,8.89,10.15,97.75,10.15,97.75l45.41.21s-8.33-78.53-15.89-104.08c-5.44-18.4-46.44-80-46.44-80Z" style="fill: rgb(55, 71, 79); transform-origin: 370.55px 322.48px;" id="ell5zeeypwnmj" class="animable"></path><path d="M424,408.11c-7.19-.23-32.68-1.14-42.27-.48-.08,0-.08.12,0,.14,3.28.55,35.07.59,42.27.54A.1.1,0,0,0,424,408.11Z" style="fill: rgb(38, 50, 56); transform-origin: 402.885px 407.86px;" id="el5sppb1tq5cv" class="animable"></path><path d="M353.14,451.16c-2.28.09-63.4-17.64-65.27-19.72a.83.83,0,0,1-.13-.43c-.2-2,3.13-9.5,5.58-19.11.15-.62,1.38-3.52,3.1-7.45,4.73-10.78,13.15-29.28,13.15-29.28l39.92,11.29L334,415.83l-2.18,6.94S351.71,439.52,353.5,442,355.42,451.05,353.14,451.16Z" style="fill: rgb(235, 148, 129); transform-origin: 321.289px 413.165px;" id="elmqjjplg39y" class="animable"></path><path d="M353.14,451.16c-2.28.09-63.4-17.64-65.27-19.72a.83.83,0,0,1-.13-.43c-.2-2,3.13-9.5,5.58-19.11.15-.62,1.38-3.52,3.1-7.45L334,415.83l-2.18,6.94S351.71,439.52,353.5,442,355.42,451.05,353.14,451.16Z" style="fill: rgb(255, 255, 255); transform-origin: 321.289px 427.805px;" id="eldqzmx8av2f7" class="animable"></path><path d="M353.14,451.15c-2.28.1-63.4-17.63-65.27-19.72-.71-.78,1.09-9.07,5.44-19.53l38.48,10.88s19.92,16.74,21.72,19.25S355.42,451.05,353.14,451.15Z" style="fill: #EF5354; transform-origin: 321.288px 431.525px;" id="el8gccnwr1xdt" class="animable"></path><path d="M353,448.52c-9.93-3.1-50.26-14.68-60.31-17-.08,0-.1,0,0,.06,9.77,3.29,50.2,14.54,60.28,17.1C353.13,448.74,353.18,448.59,353,448.52Z" style="fill: rgb(38, 50, 56); transform-origin: 322.868px 440.107px;" id="el8t1oppgzzca" class="animable"></path><path d="M335.39,424.88c-4-1.2-9-1.11-12.45,1.45-.14.1,0,.29.14.26a57.72,57.72,0,0,1,12.23-1.2A.26.26,0,0,0,335.39,424.88Z" style="fill: rgb(38, 50, 56); transform-origin: 329.231px 425.364px;" id="eljqjj4qvl28e" class="animable"></path><path d="M338.13,427c-4-1.2-9-1.11-12.45,1.45-.13.1,0,.28.15.26a57.65,57.65,0,0,1,12.23-1.2A.26.26,0,0,0,338.13,427Z" style="fill: rgb(38, 50, 56); transform-origin: 331.973px 427.483px;" id="elp8uhvzx6lx" class="animable"></path><path d="M340.88,429.06c-4-1.2-9-1.12-12.45,1.44-.14.1,0,.29.14.26a57.71,57.71,0,0,1,12.23-1.19A.26.26,0,0,0,340.88,429.06Z" style="fill: rgb(38, 50, 56); transform-origin: 334.721px 429.537px;" id="elzlmjqpjkomg" class="animable"></path><path d="M334.56,422.94,289.85,410s47.37-92.68,47.17-98.55c-.19-5.19-30.32-51.46-31.84-60-2.49-14,4.61-26.3,11.38-33.86l46.22,14.27s-3.9,8-10.83,12.88c0,0,28.05,49.56,28.41,65.65S334.56,422.94,334.56,422.94Z" style="fill: rgb(55, 71, 79); transform-origin: 335.106px 320.265px;" id="elbj987ptuck" class="animable"></path><path d="M335.49,414.86c-6.48-2-4.59-1.54-11.1-3.5-3.18-1-24.11-7.23-27.23-7.6a.07.07,0,0,0,0,.13c2.84,1.36,23.87,7.27,27.07,8.16,6.54,1.84,4.68,1.24,11.24,3A.1.1,0,0,0,335.49,414.86Z" style="fill: rgb(38, 50, 56); transform-origin: 316.333px 409.405px;" id="elt0qklky99" class="animable"></path><path d="M359.14,243a83.34,83.34,0,0,0-13,5.76.14.14,0,0,0,.12.26c4.39-1.79,8.87-3.5,13.15-5.52A.28.28,0,1,0,359.14,243Z" style="fill: rgb(38, 50, 56); transform-origin: 352.808px 246px;" id="el4b2jrurbx4n" class="animable"></path><path d="M353.7,241.75a19,19,0,0,0-.89,2.49,5.43,5.43,0,0,0-.38,2c0,.14.2.15.27.06a7.21,7.21,0,0,0,.92-2c.3-.77.62-1.53.9-2.31A.44.44,0,0,0,353.7,241.75Z" style="fill: rgb(38, 50, 56); transform-origin: 353.475px 243.945px;" id="eluopn74dveh" class="animable"></path><path d="M353.81,237.54c.2-.71.4-1.42.62-2.13s.5-1.45.66-2.2a.09.09,0,0,1,.18.06c-.2.71-.3,1.46-.44,2.18s-.31,1.46-.47,2.18c-.3,1.35-.69,2.69-1.12,4a4.79,4.79,0,0,0,2.09-.59,3.88,3.88,0,0,0,1.31-2c.31-.81.59-1.62.91-2.42a16.09,16.09,0,0,0,1-2.7c0-.12.21-.06.18.06a30.28,30.28,0,0,1-1.8,5.71c-.34.71-.59,1.45-1.32,1.8a6.26,6.26,0,0,1-2.51.42c-.1,0-.24,0-.22-.14C353.11,240.4,353.41,238.94,353.81,237.54Z" style="fill: rgb(38, 50, 56); transform-origin: 355.805px 237.53px;" id="el8bx2edaoz6p" class="animable"></path><path d="M352.81,246.35c1.7,3.24,3.65,6.36,5.46,9.53s3.46,6.25,5.1,9.42q5,9.6,9.18,19.61,2.07,4.93,3.88,10a75.38,75.38,0,0,1,3.14,10.29,27.85,27.85,0,0,1,.19,10.61,72.65,72.65,0,0,1-3,10.53,191.56,191.56,0,0,1-9.36,23.13c-.13.25-.54.05-.44-.21,2.62-6.88,5.34-13.73,7.72-20.69,2.31-6.76,5-13.76,4-21A54.14,54.14,0,0,0,376,297.3c-1.16-3.4-2.44-6.77-3.79-10.11-2.66-6.57-5.68-13-8.77-19.35-1.73-3.58-3.55-7.11-5.3-10.68s-3.48-7.25-5.48-10.72C352.6,246.34,352.76,246.25,352.81,246.35Z" style="fill: rgb(38, 50, 56); transform-origin: 366.413px 297.945px;" id="el7xmnvrwipe" class="animable"></path><path d="M319.09,238.69c.84-.12,2.07.2,5.72,0a19.11,19.11,0,0,0,3-.41,6.54,6.54,0,0,0,2.81-1.06,14.81,14.81,0,0,0,3.28-4.29,22.9,22.9,0,0,0,2.35-5.34c0-.12.19-.06.17.05-.22,1.06-.35,2.13-.66,3.18a20.11,20.11,0,0,1-1.13,2.87,11.87,11.87,0,0,1-3.38,4.73c-1.68,1.2-4,1.37-6,1.46-1.15.05-5.67-.18-6.26-.84C318.91,239,318.92,238.71,319.09,238.69Z" style="fill: rgb(38, 50, 56); transform-origin: 327.682px 233.705px;" id="el0ln61j3yff4" class="animable"></path><path d="M299.18,402.56c5.19-12.65,33-68.57,38.47-80.25,1.31-2.8,2.86-5.62,3.58-8.64.78-3.28-.17-6.29-1.49-9.28a158.25,158.25,0,0,0-8.3-16c-3-5.2-6.26-10.29-9.44-15.4a157.63,157.63,0,0,1-9-15.56c-2.43-5.17-3.72-10.66-2.85-16.37s3.46-10.94,6.23-15.9q1.09-2,2.21-3.91c.05-.1.2,0,.14.09-3.07,5.19-6,10.65-7.54,16.53a27.06,27.06,0,0,0-.87,8.91,28.28,28.28,0,0,0,2.31,8.79c2.32,5.43,5.61,10.47,8.7,15.48s6.4,10.2,9.48,15.38a173.57,173.57,0,0,1,8.58,16c1.13,2.45,2.37,5,2.59,7.74.24,3-.9,5.82-2.12,8.49-5.29,11.61-39.65,82.6-40.4,84C299.35,402.91,299.1,402.74,299.18,402.56Z" style="fill: rgb(38, 50, 56); transform-origin: 320.588px 311.997px;" id="elkevibmuqqjr" class="animable"></path><path d="M374.8,177.6c18-11.08,31.35-27.6,37.5-36.86,4.73-7.14,10.63-18.31,15.45-39.38.87-3.84-29.9-6.52-30.26-2.33-.87,10.12-5.42,28-7.58,33.24-1.61,4-14,21-22.42,33.64C357.28,181.3,367.64,182,374.8,177.6Z" style="fill: rgb(235, 148, 129); transform-origin: 395.491px 138.427px;" id="ell4ecaqw5mi" class="animable"></path><path d="M380,146.79l22.28,11.31s-16.52,13.73-27.66,20.31-15.93,2-10.3-8.86S380,146.79,380,146.79Z" style="fill: #EF5354; transform-origin: 382.116px 164.124px;" id="elfngbaowsdlb" class="animable"></path><path d="M394.16,164.58c-1.34,1-2.78,2.14-4.29,3.28l-18.56-9.68c1-1.42,2-2.78,2.89-4Z" style="fill: rgb(55, 71, 79); transform-origin: 382.735px 161.02px;" id="el7pfghlbs51v" class="animable"></path><path d="M397.84,161.67,396.11,163l-20.53-10.72,1.25-1.62Z" style="fill: rgb(55, 71, 79); transform-origin: 386.71px 156.83px;" id="elg36o1nccxi4" class="animable"></path><path d="M378.27,151.82c.77.37,1.49.86,2.22,1.29s1.49.83,2.24,1.23l4.34,2.36c2.93,1.61,5.83,3.28,8.86,4.73,0,0,.1-.05.06-.08a79.53,79.53,0,0,0-8.54-5.14q-2.2-1.2-4.45-2.34c-.76-.39-1.53-.77-2.31-1.12s-1.61-.64-2.36-1C378.27,151.69,378.21,151.79,378.27,151.82Z" style="fill: rgb(38, 50, 56); transform-origin: 387.122px 156.581px;" id="elo4qm8xc3u8" class="animable"></path><g id="els2bnn4z20ya"><path d="M373.47,155.16l-2.07,24.91c-8.82,3.92-12.17-.8-7.12-10.52A119.31,119.31,0,0,1,373.47,155.16Z" style="opacity: 0.1; transform-origin: 367.693px 168.305px;" class="animable" id="ellhkeimur95"></path></g><path d="M368.11,240c-1.17.84-58.59-11.44-58.83-11.9-.64-1.23,27.57-59,43.89-67.14,3.51-1.76,12.36,1.81,14.19,4.34,1.14,1.58,2.51,10.73,3.31,18.18C372.27,198.37,369.14,239.22,368.11,240Z" style="fill: #EF5354; transform-origin: 340.193px 200.266px;" id="elja2ibj5p5m" class="animable"></path><g id="elyeq9ty8azin"><ellipse cx="359.69" cy="186.35" rx="7.28" ry="9.13" style="fill: rgb(55, 71, 79); transform-origin: 359.69px 186.35px; transform: rotate(-87.81deg);" class="animable" id="el3hgyohg10nx"></ellipse></g><path d="M346.43,174.84c-18.77-9.66-45.25-30.3-46.23-41.37a238.19,238.19,0,0,1-.77-44.35c.28-3.92,29.26,5,29,9.23-.48,9.35-3.05,25.63-3.16,30.44-.1,4.28,18.16,21.84,27.51,33.84C364.18,177.19,353.91,178.69,346.43,174.84Z" style="fill: rgb(235, 148, 129); transform-origin: 328.307px 132.4px;" id="eltu68ok53bhd" class="animable"></path><path d="M299.62,81.72c-.92,6,1.48,21.88,3.39,24.74s21.33-2.42,22.93-5.57,6-22.54,2.9-27.9S300.57,75.5,299.62,81.72Z" style="fill: rgb(235, 148, 129); transform-origin: 314.668px 89.2456px;" id="el6v562i3pf7b" class="animable"></path><path d="M315.63,78.07s-14,4.86-19.64,16.71,1.66,23.2,2,30.94-18.79,18-18.79,18l27.95,16.19s11.75-15.24,11.06-28.74-13.36-24-12.87-32.47,11.49-14.48,11.49-14.48Z" style="fill: #EF5354; transform-origin: 298.72px 118.99px;" id="elcpbcmb50d4p" class="animable"></path><path d="M317.35,139.27q-.23.89-.48,1.77c-.21.71-.44,1.41-.68,2.1a67.21,67.21,0,0,1-9,16.73l-27.94-16.19s15.62-8.33,18.38-15.65a6,6,0,0,0,.4-2.31,18.56,18.56,0,0,0-.41-3c-1.54-7.53-6.58-17.55-1.6-27.94,5.67-11.85,19.64-16.71,19.64-16.71l1.22,6.11s-11,6-11.49,14.48c-.39,6.62,7.27,14.49,11,24.06a27.17,27.17,0,0,1,1.9,8.41A28.58,28.58,0,0,1,317.35,139.27Z" style="fill: rgb(55, 71, 79); transform-origin: 298.776px 118.97px;" id="elv8atk9uylrb" class="animable"></path><path d="M317.35,139.27,297.6,128a6,6,0,0,0,.4-2.31,18.56,18.56,0,0,0-.41-3h18.73a27.17,27.17,0,0,1,1.9,8.41A28.58,28.58,0,0,1,317.35,139.27Z" style="fill: rgb(38, 50, 56); transform-origin: 307.915px 130.98px;" id="el5nfgajqh1ye" class="animable"></path><path d="M316.87,141c-.21.71-.44,1.41-.68,2.1l-10.95-9.74C305.84,133.79,313.11,138.51,316.87,141Z" style="fill: rgb(38, 50, 56); transform-origin: 311.055px 138.23px;" id="ele0dysmfaf" class="animable"></path><path d="M267,155.36a1,1,0,0,1-.7-.29,1,1,0,0,1,0-1.41c3.62-3.68,9.13-8.55,14.76-10.89a1,1,0,1,1,.77,1.84c-5.33,2.22-10.61,6.91-14.11,10.45A1,1,0,0,1,267,155.36Z" style="fill: rgb(55, 71, 79); transform-origin: 274.261px 149.011px;" id="eltwurski9kwl" class="animable"></path><path d="M270.5,158a1,1,0,0,1-.66-.25,1,1,0,0,1-.09-1.41c3.41-3.87,8.62-9,14.11-11.72a1,1,0,0,1,.87,1.8c-5.19,2.52-10.19,7.5-13.48,11.24A1,1,0,0,1,270.5,158Z" style="fill: rgb(55, 71, 79); transform-origin: 277.386px 151.266px;" id="elt8eyu9b61js" class="animable"></path><path d="M274.5,160.76a.92.92,0,0,1-.59-.2,1,1,0,0,1-.22-1.39c3.06-4.16,7.8-9.78,13-12.92a1,1,0,0,1,1,1.72c-4.95,3-9.5,8.37-12.45,12.38A1,1,0,0,1,274.5,160.76Z" style="fill: rgb(55, 71, 79); transform-origin: 280.802px 153.461px;" id="elbtp3ik58lwe" class="animable"></path><path d="M280.87,164.13a1,1,0,0,1-.73-.31,1,1,0,0,1,0-1.42c1.31-1.24,2.61-2.62,4-4.09,3-3.18,6.07-6.47,9.34-8.29a1,1,0,0,1,1,1.75c-3,1.66-6,4.84-8.85,7.9-1.34,1.43-2.73,2.91-4.08,4.19A1,1,0,0,1,280.87,164.13Z" style="fill: rgb(55, 71, 79); transform-origin: 287.416px 157.009px;" id="elczqegdrn5pw" class="animable"></path><path d="M277.4,162.26a1,1,0,0,1-.73-.31,1,1,0,0,1,0-1.42c1.31-1.24,2.61-2.63,4-4.1,3-3.18,6.08-6.46,9.34-8.28a1,1,0,1,1,1,1.75c-3,1.66-6,4.84-8.85,7.9-1.34,1.43-2.73,2.91-4.08,4.18A1,1,0,0,1,277.4,162.26Z" style="fill: rgb(55, 71, 79); transform-origin: 283.947px 155.138px;" id="elplvpvzj31s" class="animable"></path><path d="M284.51,166.34a1,1,0,0,1-.74-1.67c1.21-1.33,2.41-2.82,3.68-4.38,2.74-3.4,5.57-6.9,8.7-9a1,1,0,0,1,1.09,1.67c-2.86,1.89-5.59,5.27-8.24,8.54-1.23,1.53-2.5,3.1-3.75,4.48A1,1,0,0,1,284.51,166.34Z" style="fill: rgb(55, 71, 79); transform-origin: 290.572px 158.753px;" id="eldenpno1o5o" class="animable"></path><path d="M287.23,168.35a1,1,0,0,1-.67-.26,1,1,0,0,1-.07-1.41c1.22-1.33,2.41-2.82,3.68-4.39,2.74-3.39,5.58-6.89,8.7-8.95a1,1,0,0,1,1.39.29A1,1,0,0,1,300,155c-2.86,1.89-5.6,5.27-8.24,8.54-1.23,1.52-2.5,3.1-3.76,4.48A1,1,0,0,1,287.23,168.35Z" style="fill: rgb(55, 71, 79); transform-origin: 293.329px 160.762px;" id="eljqt233id3zb" class="animable"></path><path d="M294.31,170.74a1,1,0,0,1-.78-1.62,24,24,0,0,1,6-5.08c2.74-1.83,5.33-3.55,7-7a1,1,0,0,1,1.8.87c-1.89,3.91-4.84,5.87-7.68,7.76a22.19,22.19,0,0,0-5.57,4.66A1,1,0,0,1,294.31,170.74Z" style="fill: rgb(55, 71, 79); transform-origin: 300.866px 163.62px;" id="elbx0qtflmqng" class="animable"></path><path d="M290.6,169.25A1,1,0,0,1,290,169a1,1,0,0,1-.17-1.4,33.94,33.94,0,0,1,7.23-6.45,41.8,41.8,0,0,0,6.58-5.57A1,1,0,1,1,305.1,157a43.23,43.23,0,0,1-6.89,5.84,32.07,32.07,0,0,0-6.82,6.06A1,1,0,0,1,290.6,169.25Z" style="fill: rgb(55, 71, 79); transform-origin: 297.504px 162.261px;" id="el1ewwdxj6imm" class="animable"></path><path d="M315.63,78.07c2.82-.57,34.53-.29,47.06-1.67S408.36,71,408.36,71l.5,6.18s-21.23,23.72-43.29,25.06-48.72-18.09-48.72-18.09Z" style="fill: rgb(55, 71, 79); transform-origin: 362.245px 86.6531px;" id="elm7s7maamkzf" class="animable"></path><path d="M375.44,87.58c.36,4-4.19,7.68-10.17,8.23s-11.14-2.25-11.5-6.25,4.19-7.69,10.17-8.24S375.07,83.57,375.44,87.58Z" style="fill: #EF5354; transform-origin: 364.605px 88.565px;" id="elkxmclahqiol" class="animable"></path><path d="M348.54,77.22V100c-1.66-.48-3.29-1-4.9-1.6v-21C345.29,77.33,346.94,77.28,348.54,77.22Z" style="fill: #EF5354; transform-origin: 346.09px 88.61px;" id="elxcw1yc30kqa" class="animable"></path><path d="M341.37,77.43V97.5c-.68-.27-1.35-.54-2-.82V77.47Z" style="fill: #EF5354; transform-origin: 340.37px 87.465px;" id="elh5y8oh2r0cv" class="animable"></path><path d="M386.3,95.35c-1.53.88-3.09,1.7-4.7,2.46l-2.13-23.35,4.86-.57Z" style="fill: #EF5354; transform-origin: 382.885px 85.85px;" id="elx50dydpnyjr" class="animable"></path><path d="M390.37,92.86c-.63.4-1.26.81-1.91,1.21l-1.87-20.44,2-.25Z" style="fill: #EF5354; transform-origin: 388.48px 83.725px;" id="elk6ybfjkiw3" class="animable"></path><path d="M331.94,82.2c-2.06,2.47-3.79-1.38-3.79-1.38s1.16,6.13-1.95,7.86-4.93-3.06-5.07-3.4c.06.32,1,6-2.33,7.4s-4.55-3.61-4.63-3.93c0,.32-.65,4.59-3.41,5.1-4.73.85-3.45-10.12-6-13.07,0,0-5,1.32-5.23,1.39,0,0,.56-8,4.73-11.25a3.35,3.35,0,0,1,4.2,0s-.05-3.41,2.52-4.6c1.32-.61,3.46,1,3.46,1a4.22,4.22,0,0,1,2.42-3.65c1.87-.74,3.74.95,3.74.95s1.29-2.59,3.44-2.73C328.4,61.6,336.35,76.91,331.94,82.2Z" style="fill: rgb(235, 148, 129); transform-origin: 316.381px 77.8914px;" id="eljmeoypis8g" class="animable"></path><path d="M320.94,64.82a0,0,0,0,1,.07-.06A29.93,29.93,0,0,1,328.27,81c0,.19-.29.31-.35.1A61.25,61.25,0,0,0,320.94,64.82Z" style="fill: rgb(38, 50, 56); transform-origin: 324.605px 72.9854px;" id="elgeb6rfhc7z" class="animable"></path><path d="M314.44,67.21c0-.06.06-.12.11-.06a28.08,28.08,0,0,1,6.81,18.22c0,.24-.25.44-.26.17C320.87,81,317.43,71.92,314.44,67.21Z" style="fill: rgb(38, 50, 56); transform-origin: 317.9px 76.3972px;" id="ellp1ocutnasr" class="animable"></path><path d="M314,89.22c-.09-6.55-2.26-12.4-5.35-18.1,0-.07.07-.12.12-.07,2.27,2.37,3.86,6.21,4.85,9.3a17.23,17.23,0,0,1,.61,8.86C314.2,89.33,314,89.36,314,89.22Z" style="fill: rgb(38, 50, 56); transform-origin: 311.598px 80.1714px;" id="elnje5x013kcn" class="animable"></path><path d="M328.15,80.82a19.68,19.68,0,0,1,0,3.6,6.57,6.57,0,0,1-1.06,3.27,2.09,2.09,0,0,1-1.3.84,3.05,3.05,0,0,1-1.59-.1,3.83,3.83,0,0,1-2.14-2.28l-1-2.46.06,2.64a10.94,10.94,0,0,1-.47,3.47,3.89,3.89,0,0,1-1.94,2.49,2.23,2.23,0,0,1-2.72-.56,6.74,6.74,0,0,1-1.34-3.06l-.6-3.07-.43,3.08a10.41,10.41,0,0,1-.68,2.5,4.2,4.2,0,0,1-1.46,1.92,2,2,0,0,1-2.09.07,4.47,4.47,0,0,1-1.42-2A34.32,34.32,0,0,1,306.57,86c-.21-.9-.42-1.79-.66-2.68a6.65,6.65,0,0,0-1.14-2.49,7,7,0,0,1,.89,2.55c.18.9.31,1.8.45,2.7a29.46,29.46,0,0,0,1.2,5.41,5.11,5.11,0,0,0,1.63,2.46,2.82,2.82,0,0,0,3.09,0,5.06,5.06,0,0,0,1.86-2.34,10.72,10.72,0,0,0,.8-2.77l-1,0a7.6,7.6,0,0,0,1.55,3.63,3.16,3.16,0,0,0,1.86,1.09,3.63,3.63,0,0,0,2.12-.3,4.87,4.87,0,0,0,2.45-3.15,11.78,11.78,0,0,0,.46-3.82l-.92.19a4.63,4.63,0,0,0,2.8,2.69,3.87,3.87,0,0,0,2,0A2.81,2.81,0,0,0,327.57,88a6.7,6.7,0,0,0,.91-3.59A16.27,16.27,0,0,0,328.15,80.82Z" style="fill: rgb(38, 50, 56); transform-origin: 316.627px 87.6154px;" id="eld5s1m0vwxxm" class="animable"></path><path d="M326.26,102.27s19.36-23.94,5.86-26.76c-3.26-.68-17.32,2.25-16.86,5.07.6,3.65,6.65,3.66,10.45,3.07,0,0-5.67,6.79-2.12,12.15A17.6,17.6,0,0,1,326.26,102.27Z" style="fill: rgb(235, 148, 129); transform-origin: 326.076px 88.8403px;" id="el9uxrdbt8nzu" class="animable"></path><path d="M333,75.67a13.49,13.49,0,0,0-3.91-.29,30.35,30.35,0,0,0-3.92.45,45.9,45.9,0,0,0-7.64,2,7.69,7.69,0,0,0-1.85,1,2.66,2.66,0,0,0-.79.9,1.86,1.86,0,0,0-.21,1.28,3.24,3.24,0,0,0,1.17,2,6,6,0,0,0,1.89,1,11.67,11.67,0,0,0,4,.52,27.51,27.51,0,0,0,4-.38l-.41-.75a15.41,15.41,0,0,0-1.62,2.55,14.2,14.2,0,0,0-1.1,2.79,10,10,0,0,0-.36,3,7.85,7.85,0,0,0,.64,2.88,8.54,8.54,0,0,1-.32-2.88,10.28,10.28,0,0,1,.59-2.8,13.63,13.63,0,0,1,1.2-2.6A14.85,14.85,0,0,1,326.05,84l.78-.88-1.19.13a29.05,29.05,0,0,1-3.82.25,11.46,11.46,0,0,1-3.68-.52c-1.12-.38-2.19-1.13-2.35-2.13s1-1.56,2.17-2a37.1,37.1,0,0,1,3.64-1.24c1.25-.38,2.49-.73,3.75-1A25,25,0,0,1,333,75.67Z" style="fill: rgb(38, 50, 56); transform-origin: 323.823px 84.9826px;" id="elsafami4nylb" class="animable"></path><path d="M338.91,144.52l-21.34,13s17.52,12.42,29.14,18.13,16,.72,9.59-9.63S338.91,144.52,338.91,144.52Z" style="fill: #EF5354; transform-origin: 338.413px 161.284px;" id="elwv919s3bii" class="animable"></path><path d="M348.38,155.18l-18.3,10.74c-1.62-1-3.16-2-4.58-3l19.69-11.54C346.2,152.56,347.28,153.83,348.38,155.18Z" style="fill: rgb(55, 71, 79); transform-origin: 336.94px 158.65px;" id="elq4biji97yna" class="animable"></path><path d="M343.66,149.65,323.4,161.53l-1.84-1.25,20.72-12.16Z" style="fill: rgb(55, 71, 79); transform-origin: 332.61px 154.825px;" id="elvwz21gbvem" class="animable"></path><path d="M341,149.41c-.73.43-1.41,1-2.11,1.45s-1.42.94-2.14,1.41L332.59,155c-2.8,1.83-5.55,3.72-8.47,5.4,0,0-.1,0-.06-.08a79.75,79.75,0,0,1,8.11-5.78c1.41-.91,2.83-1.81,4.26-2.68.73-.44,1.47-.88,2.22-1.29s1.56-.76,2.27-1.21C341,149.27,341.05,149.37,341,149.41Z" style="fill: rgb(38, 50, 56); transform-origin: 332.535px 154.862px;" id="elx1hj1n6mzt" class="animable"></path><path d="M344.29,174.89a7.75,7.75,0,0,0,2.82,2.78s.05,0,0,0a16,16,0,0,1-2.49-2.52l1.25.78c1.51.93,1.85,1.14,3.43,2,0,0,.07,0,0,0-2.46-1.83-5-3.43-7.53-5.14-.68-.46-1.57-.35.27.82Z" style="fill: rgb(38, 50, 56); transform-origin: 345.139px 175.234px;" id="elxnpwzi0okz" class="animable"></path><path d="M428.48,84.05c1.08,6-.9,21.91-2.73,24.82s-21.38-1.85-23.07-5-6.59-22.37-3.63-27.82S427.37,77.86,428.48,84.05Z" style="fill: rgb(235, 148, 129); transform-origin: 413.453px 91.953px;" id="el22t9rjvcqky" class="animable"></path><path d="M410,79.9s14.69,1.78,22.75,12.15-.34,20.36.46,28.08c.61,5.87,12.53,8.55,17.76,13.11,7.51,6.54,6.63,17.64,6.63,17.64l-20.89,13.24s2.49-11.77-2.84-17.84c-6.48-7.41-13.63-12.13-14.66-19.61-1.52-11,7.5-20.66,5.21-28.83s-14.31-11.7-14.31-11.7Z" style="fill: rgb(55, 71, 79); transform-origin: 433.816px 122.01px;" id="el53axhswr6ht" class="animable"></path><path d="M434.73,123.26l-14.05,8a14.07,14.07,0,0,1-1.5-4.59,23.7,23.7,0,0,1,1-9.87h13.16a12.54,12.54,0,0,0-.14,3.33A5.47,5.47,0,0,0,434.73,123.26Z" style="fill: rgb(38, 50, 56); transform-origin: 426.884px 124.03px;" id="elypx3ex622se" class="animable"></path><path d="M429.1,127.47l-6.77,6.43q-.52-.74-1-1.47C424.4,130.44,428.69,127.73,429.1,127.47Z" style="fill: rgb(38, 50, 56); transform-origin: 425.215px 130.685px;" id="elwsu0pdlugnk" class="animable"></path><path d="M440.72,176.54h-.05a1,1,0,0,1-.95-1c.08-1.8.06-3.71,0-5.73-.06-4.36-.11-8.87,1-12.44a1,1,0,0,1,1.24-.67,1,1,0,0,1,.67,1.25c-1,3.28-.94,7.63-.89,11.84,0,1.95.05,4,0,5.84A1,1,0,0,1,440.72,176.54Z" style="fill: rgb(55, 71, 79); transform-origin: 441.184px 166.6px;" id="elh6r5qaghfe7" class="animable"></path><path d="M436.44,177.79h0a1,1,0,0,1-1-1,169.4,169.4,0,0,1,1.77-18,1,1,0,1,1,2,.3,165.31,165.31,0,0,0-1.75,17.81A1,1,0,0,1,436.44,177.79Z" style="fill: rgb(55, 71, 79); transform-origin: 437.331px 167.86px;" id="elxdx9l27414r" class="animable"></path><path d="M445.08,173.62a1,1,0,0,1-1-1c-.05-1.81-.21-3.71-.39-5.72-.38-4.34-.77-8.83.05-12.47a1,1,0,1,1,1.95.44c-.75,3.34-.37,7.67,0,11.86.17,2,.35,4,.4,5.83a1,1,0,0,1-1,1Z" style="fill: rgb(55, 71, 79); transform-origin: 444.673px 163.62px;" id="el40eil5gp6ku" class="animable"></path><path d="M449.31,170.42a1,1,0,0,1-1-.92c-.14-1.8-.39-3.69-.67-5.68-.59-4.32-1.2-8.79-.56-12.47a1,1,0,1,1,2,.34c-.59,3.37,0,7.69.57,11.86.27,1.93.54,3.94.69,5.79a1,1,0,0,1-.92,1.08Z" style="fill: rgb(55, 71, 79); transform-origin: 448.575px 160.462px;" id="el80wi1yls1im" class="animable"></path><path d="M455,167.18a1,1,0,0,1-1-.92,24.18,24.18,0,0,1,1-7.83c.79-3.19,1.53-6.22.44-9.85a1,1,0,0,1,.68-1.25,1,1,0,0,1,1.24.67c1.25,4.16.4,7.6-.42,10.91a22.1,22.1,0,0,0-1,7.19,1,1,0,0,1-.92,1.08Z" style="fill: rgb(55, 71, 79); transform-origin: 455.988px 157.235px;" id="el796c6omd0ff" class="animable"></path><path d="M452.89,168.88a1,1,0,0,1-1-.76,33.83,33.83,0,0,1-.62-9.66,41.76,41.76,0,0,0-.34-8.62,1,1,0,0,1,.82-1.15,1,1,0,0,1,1.16.82,43.07,43.07,0,0,1,.35,9,32.24,32.24,0,0,0,.57,9.11,1,1,0,0,1-1,1.24Z" style="fill: rgb(55, 71, 79); transform-origin: 452.388px 158.778px;" id="el99h0pear9bp" class="animable"></path><path d="M396.19,85.38c2.12,2.41,3.75-1.47,3.75-1.47s-1,6.16,2.16,7.8,4.84-3.19,5-3.53c-.05.32-.82,6,2.52,7.33s4.46-3.72,4.52-4.05c.05.32.78,4.58,3.55,5,4.75.74,3.18-10.2,5.64-13.22,0,0,5.08,1.19,5.27,1.26,0,0-.77-8-5-11.13a3.35,3.35,0,0,0-4.2.14s0-3.41-2.64-4.53c-1.33-.58-3.43,1-3.43,1a4.23,4.23,0,0,0-2.52-3.59c-1.89-.69-3.71,1-3.71,1s-1.36-2.56-3.52-2.63C399.18,64.69,391.64,80.21,396.19,85.38Z" style="fill: rgb(235, 148, 129); transform-origin: 411.69px 80.6278px;" id="el4ljjfyntr6m" class="animable"></path><path d="M406.72,67.72a0,0,0,0,0-.07-.06,29.91,29.91,0,0,0-6.82,16.45c0,.19.29.29.35.08A61.53,61.53,0,0,1,406.72,67.72Z" style="fill: rgb(38, 50, 56); transform-origin: 403.275px 75.9837px;" id="el9wp4tqzxy84" class="animable"></path><path d="M413.28,69.93c0-.05-.06-.11-.11-.06a28,28,0,0,0-6.32,18.4c0,.24.26.44.26.17C407.22,83.89,410.42,74.72,413.28,69.93Z" style="fill: rgb(38, 50, 56); transform-origin: 410.061px 79.2102px;" id="eluaewttd4fa" class="animable"></path><path d="M414.31,91.92c-.09-6.54,1.93-12.45,4.87-18.23,0-.07-.07-.12-.12-.07-2.21,2.44-3.7,6.31-4.61,9.43a17.27,17.27,0,0,0-.37,8.88C414.11,92,414.31,92.06,414.31,91.92Z" style="fill: rgb(38, 50, 56); transform-origin: 416.424px 82.8023px;" id="elexau6n39a19" class="animable"></path><path d="M399.94,83.91A19.54,19.54,0,0,0,400,87.5a6.54,6.54,0,0,0,1.15,3.24,2.11,2.11,0,0,0,1.32.81,3.16,3.16,0,0,0,1.59-.14,3.86,3.86,0,0,0,2.08-2.34l.9-2.48,0,2.64a10.89,10.89,0,0,0,.56,3.45,3.88,3.88,0,0,0,2,2.44,2.21,2.21,0,0,0,2.7-.64,6.55,6.55,0,0,0,1.26-3.09l.52-3.08.52,3.07a10.4,10.4,0,0,0,.74,2.48,4.24,4.24,0,0,0,1.5,1.88,2,2,0,0,0,2.1,0,4.47,4.47,0,0,0,1.37-2,35.65,35.65,0,0,0,1.3-5.25c.18-.9.37-1.8.59-2.69a6.61,6.61,0,0,1,1.07-2.53,7.09,7.09,0,0,0-.82,2.58c-.16.9-.27,1.8-.38,2.71A29.54,29.54,0,0,1,421.05,94a5.09,5.09,0,0,1-1.56,2.5,2.82,2.82,0,0,1-3.09.1,5.15,5.15,0,0,1-1.92-2.29,10.9,10.9,0,0,1-.88-2.75h1a7.6,7.6,0,0,1-1.46,3.67,3.15,3.15,0,0,1-1.83,1.15,3.63,3.63,0,0,1-2.12-.25A4.84,4.84,0,0,1,406.69,93a11.76,11.76,0,0,1-.55-3.81l.91.16a4.57,4.57,0,0,1-2.72,2.77,4,4,0,0,1-2,.07,2.79,2.79,0,0,1-1.65-1.1,6.82,6.82,0,0,1-1-3.57A15.64,15.64,0,0,1,399.94,83.91Z" style="fill: rgb(38, 50, 56); transform-origin: 411.467px 90.1413px;" id="elys8ow7liv6l" class="animable"></path><path d="M402.39,105.3s-20-23.42-6.56-26.6c3.24-.76,17.37,1.79,17,4.62-.5,3.67-6.54,3.84-10.36,3.35,0,0,5.85,6.63,2.45,12.08A17.59,17.59,0,0,0,402.39,105.3Z" style="fill: rgb(235, 148, 129); transform-origin: 402.011px 91.9321px;" id="elxgvwpg0lg9" class="animable"></path><path d="M394.91,78.88a13.51,13.51,0,0,1,3.91-.39,30.36,30.36,0,0,1,3.92.35,45.18,45.18,0,0,1,7.7,1.78,7.64,7.64,0,0,1,1.88.93,2.72,2.72,0,0,1,.81.87,2.36,2.36,0,0,1,.23.62,2,2,0,0,1,0,.65,3.26,3.26,0,0,1-1.12,2,6.11,6.11,0,0,1-1.86,1.07,11.93,11.93,0,0,1-4,.63,27.59,27.59,0,0,1-4-.28l.39-.76a16.47,16.47,0,0,1,1.69,2.51,14.3,14.3,0,0,1,1.17,2.76,9.89,9.89,0,0,1,.43,3,7.53,7.53,0,0,1-.56,2.9,8.77,8.77,0,0,0,.25-2.88,10.63,10.63,0,0,0-.67-2.79,13.65,13.65,0,0,0-1.27-2.57A14.73,14.73,0,0,0,402.12,87l-.8-.86,1.19.1a28.91,28.91,0,0,0,3.83.14,11.72,11.72,0,0,0,3.67-.61c1.1-.41,2.15-1.19,2.28-2.19s-1.08-1.54-2.22-2a37.25,37.25,0,0,0-3.67-1.15c-1.25-.34-2.51-.67-3.78-.93A25.3,25.3,0,0,0,394.91,78.88Z" style="fill: rgb(38, 50, 56); transform-origin: 404.148px 87.9977px;" id="el17apwiy558v" class="animable"></path><path d="M362.33,172.74c-3.58-.11-8-6.82-9.14-11.6-.07-.33,1.18-3.23,2.53-6.82.81-2.18,1.66-4.63,2.28-6.92l13.43,7.36a37.86,37.86,0,0,0-3.75,8.42,5,5,0,0,0-.16,1s0,.1,0,.16C367.31,166.17,365.8,172.84,362.33,172.74Z" style="fill: rgb(235, 148, 129); transform-origin: 362.309px 160.071px;" id="elbohsl8y1zri" class="animable"></path><path d="M358.64,147.75c-.33,3-.91,13.81,7.36,16.24a10.68,10.68,0,0,0,1.5.32.5.5,0,0,0,0-.16,5.72,5.72,0,0,1,.15-1,38,38,0,0,1,3.77-8.42Z" style="fill: rgb(38, 50, 56); transform-origin: 364.951px 156.03px;" id="ell0j077900m" class="animable"></path><path d="M357.82,133.15c-2,5.15-.21,20.55,3.31,24.2,5.1,5.28,13.95,6.35,18.57.1,4.48-6,1.83-26.08-2.14-29.44C371.7,123.05,360.71,125.53,357.82,133.15Z" style="fill: rgb(235, 148, 129); transform-origin: 369.512px 143.586px;" id="el7i930wz7ux9" class="animable"></path><path d="M372,143.43s-.08,0-.07.1c.14,1,.14,2.24-.77,2.69,0,0,0,.06,0,.05C372.28,146,372.27,144.38,372,143.43Z" style="fill: rgb(38, 50, 56); transform-origin: 371.656px 144.851px;" id="elka1wkrea4d" class="animable"></path><path d="M370.92,142.44c-1.68.06-1.45,3.42.11,3.37S372.33,142.4,370.92,142.44Z" style="fill: rgb(38, 50, 56); transform-origin: 370.925px 144.125px;" id="elyk7pysotxi" class="animable"></path><path d="M377.74,143.05s.08,0,.08.09c0,1,.26,2.23,1.23,2.51a0,0,0,0,1,0,.06C377.88,145.63,377.61,144.05,377.74,143.05Z" style="fill: rgb(38, 50, 56); transform-origin: 378.38px 144.38px;" id="el6uv9x6gjw0t" class="animable"></path><path d="M378.59,141.9c1.67-.25,2,3.1.49,3.33S377.19,142.1,378.59,141.9Z" style="fill: rgb(38, 50, 56); transform-origin: 378.883px 143.564px;" id="elnu6milplal" class="animable"></path><path d="M369.49,141c.45-.15.84-.36,1.27-.55a2.3,2.3,0,0,0,1.19-.81.72.72,0,0,0-.18-.85,1.79,1.79,0,0,0-1.79-.06,2.58,2.58,0,0,0-1.41,1.23A.76.76,0,0,0,369.49,141Z" style="fill: rgb(38, 50, 56); transform-origin: 370.26px 139.777px;" id="els27d49wyrqs" class="animable"></path><path d="M379.77,140.11a12.51,12.51,0,0,1-1.36-.25,2.25,2.25,0,0,1-1.34-.52.72.72,0,0,1,0-.87,1.8,1.8,0,0,1,1.74-.46,2.66,2.66,0,0,1,1.65.88A.76.76,0,0,1,379.77,140.11Z" style="fill: rgb(38, 50, 56); transform-origin: 378.771px 139.031px;" id="elcsjq1cb7mus" class="animable"></path><path d="M371.37,153.19c.27.23.54.55.92.55a2.67,2.67,0,0,0,1.1-.34s.07,0,.05,0a1.4,1.4,0,0,1-1.28.66,1.1,1.1,0,0,1-.88-.86A.06.06,0,0,1,371.37,153.19Z" style="fill: rgb(38, 50, 56); transform-origin: 372.362px 153.619px;" id="elgdrxo9zibgm" class="animable"></path><path d="M372.25,150a3.56,3.56,0,0,0,2.48,1.41,4.59,4.59,0,0,0,1.28,0,1,1,0,0,0,.24,0,1,1,0,0,0,.22-.05.27.27,0,0,0,.2-.24h0s0-.07,0-.11h0v-.09c0-.8-.2-2-.2-2,.31.12,1.85.69,1.79.27a53.25,53.25,0,0,0-2.12-10.63.1.1,0,0,0-.19,0c.3,3.33,1.19,6.59,1.54,9.94a6.06,6.06,0,0,0-1.71-.39c-.11,0,.36,2.34.34,2.7a0,0,0,0,1,0,0,4.93,4.93,0,0,1-3.75-.88C372.26,149.84,372.18,149.92,372.25,150Z" style="fill: rgb(38, 50, 56); transform-origin: 375.243px 144.973px;" id="el03vw46oe3gv6" class="animable"></path><path d="M375.4,151.2a4.11,4.11,0,0,1-1.69,1.26,1.87,1.87,0,0,1-1.15,0c-.82-.23-.83-1-.66-1.63a4.42,4.42,0,0,1,.39-1A5.41,5.41,0,0,0,375.4,151.2Z" style="fill: rgb(38, 50, 56); transform-origin: 373.606px 151.19px;" id="elghtxmdze73q" class="animable"></path><path d="M373.71,152.46a1.87,1.87,0,0,1-1.15,0c-.82-.23-.83-1-.66-1.63A1.94,1.94,0,0,1,373.71,152.46Z" style="fill: rgb(242, 145, 184); transform-origin: 372.761px 151.69px;" id="el9k6eqjlyj5o" class="animable"></path><path d="M380.43,134s0,0,0,0l0,.07Z" style="fill: rgb(38, 50, 56); transform-origin: 380.43px 134.035px;" id="el18w09ipe2xi" class="animable"></path><circle cx="365.62" cy="150.43" r="3" style="fill: #EF5354; transform-origin: 365.62px 150.43px;" id="el6d8vrybemus" class="animable"></circle><path d="M357.87,147.51s-4.91-9.6-4-14.88c.41-2.39,3.8-3.77,3.8-3.77a5.45,5.45,0,0,1,2.11-5.34c3-2.47,9.87-1.37,9.87-1.37s4.92-6.13,11.05-3.12,1.5,9.87,1.5,9.87,2.08,3.45-3.76,5.62-16.77-1.17-16.77-1.17a39.55,39.55,0,0,1-1,11.65A3.6,3.6,0,0,1,357.87,147.51Z" style="fill: rgb(38, 50, 56); transform-origin: 368.817px 132.854px;" id="el9v65uauvufe" class="animable"></path><path d="M370.72,122.31a11.27,11.27,0,0,0-4.38-1.13,11.93,11.93,0,0,0-4,.34c-2.33.65-4.47,2.18-5,4.64a4.65,4.65,0,0,0,.63,3.56s.09,0,.06-.05c-1.33-1.91-.36-4.67,1.26-6.07a10,10,0,0,1,6.83-2,19.56,19.56,0,0,1,4.62.82A.07.07,0,0,0,370.72,122.31Z" style="fill: rgb(38, 50, 56); transform-origin: 363.991px 125.429px;" id="el583w0v51fxw" class="animable"></path><path d="M385,122.4a5.41,5.41,0,0,0-3.49-3.71,9.18,9.18,0,0,0-6-.22,11.67,11.67,0,0,0-5.15,3.27s0,.09.06.05a10.24,10.24,0,0,1,10-2.92,5.57,5.57,0,0,1,3.84,3,5.49,5.49,0,0,1-.48,4.67,10.33,10.33,0,0,1-4.34,3.78s0,.08,0,.06a10.72,10.72,0,0,0,4.3-3.16A6.06,6.06,0,0,0,385,122.4Z" style="fill: rgb(38, 50, 56); transform-origin: 377.723px 124.226px;" id="elp675z9ars9" class="animable"></path><path d="M379.77,134.91a19,19,0,0,1-8,.81,38.91,38.91,0,0,1-8.27-1.75q-2.36-.75-4.65-1.64c-.05,0-.08,0,0,.08a43,43,0,0,0,8.35,3.25,21.51,21.51,0,0,0,8.26.52,18.78,18.78,0,0,0,4.4-1.21A0,0,0,0,0,379.77,134.91Z" style="fill: rgb(38, 50, 56); transform-origin: 369.33px 134.347px;" id="elwodq1r0hmcc" class="animable"></path><path d="M360.77,145.33s-3.21-5.09-5.5-4,0,8.39,2.53,9.49a2.68,2.68,0,0,0,3.65-1.27Z" style="fill: rgb(235, 148, 129); transform-origin: 357.889px 146.144px;" id="elbra84skyhqs" class="animable"></path><path d="M356,143.43s0,0,0,.07c1.8.83,2.69,2.58,3.28,4.38a1.47,1.47,0,0,0-2.18-.51.06.06,0,0,0,0,.1,1.64,1.64,0,0,1,1.78.66,8,8,0,0,1,.8,1.5c.08.17.38.1.33-.09l0,0C360.14,147.15,358.47,143.78,356,143.43Z" style="fill: rgb(38, 50, 56); transform-origin: 358.009px 146.578px;" id="eladc0pa0i0mk" class="animable"></path></g><g id="freepik--Table--inject-81" class="animable" style="transform-origin: 549.705px 394.825px;"><rect x="411.58" y="339.83" width="276.25" height="84.57" style="fill: #EF5354; transform-origin: 549.705px 382.115px;" id="elxgq1klfdum" class="animable"></rect><g id="elfag75ybz5hw"><rect x="411.58" y="339.83" width="276.25" height="84.57" style="opacity: 0.2; transform-origin: 549.705px 382.115px;" class="animable" id="elhu80dmm3hul"></rect></g><g id="elo3k8rub7ner"><rect x="468.3" y="339.83" width="219.53" height="84.57" style="opacity: 0.2; transform-origin: 578.065px 382.115px;" class="animable" id="elxspummvll7"></rect></g><polygon points="668.29 424.4 668.91 432.08 670.37 449.82 677.06 449.82 678.52 432.08 679.14 424.4 668.29 424.4" style="fill: rgb(199, 199, 199); transform-origin: 673.715px 437.11px;" id="el41qtesalnq" class="animable"></polygon><polygon points="679.14 424.4 668.29 424.4 668.91 432.08 678.52 432.08 679.14 424.4" style="fill: rgb(166, 166, 166); transform-origin: 673.715px 428.24px;" id="elw9o2wqb7ql9" class="animable"></polygon><polygon points="616.76 424.4 617.38 432.08 618.84 449.82 625.53 449.82 626.99 432.08 627.62 424.4 616.76 424.4" style="fill: rgb(199, 199, 199); transform-origin: 622.19px 437.11px;" id="elkwurjy5dv78" class="animable"></polygon><polygon points="616.76 424.4 617.38 432.08 626.99 432.08 627.62 424.4 616.76 424.4" style="fill: rgb(166, 166, 166); transform-origin: 622.19px 428.24px;" id="elun5uusvn2v" class="animable"></polygon><polygon points="478.37 424.4 478.99 432.08 480.45 449.82 487.14 449.82 488.6 432.08 489.22 424.4 478.37 424.4" style="fill: rgb(199, 199, 199); transform-origin: 483.795px 437.11px;" id="el8eluf6ewsih" class="animable"></polygon><polygon points="489.22 424.4 478.37 424.4 478.99 432.08 488.6 432.08 489.22 424.4" style="fill: rgb(166, 166, 166); transform-origin: 483.795px 428.24px;" id="el62dtkpac40j" class="animable"></polygon><polygon points="426.84 424.4 427.46 432.08 428.92 449.82 435.61 449.82 437.07 432.08 437.7 424.4 426.84 424.4" style="fill: rgb(199, 199, 199); transform-origin: 432.27px 437.11px;" id="eldv8b89ai3a" class="animable"></polygon><polygon points="426.84 424.4 427.46 432.08 437.07 432.08 437.7 424.4 426.84 424.4" style="fill: rgb(166, 166, 166); transform-origin: 432.27px 428.24px;" id="el8nzhq99hirh" class="animable"></polygon></g><g id="freepik--Tv--inject-81" class="animable" style="transform-origin: 564.705px 278.245px;"><rect x="459.39" y="216.66" width="210.63" height="111.75" style="fill: rgb(55, 71, 79); transform-origin: 564.705px 272.535px;" id="elvyp3cqgdlvk" class="animable"></rect><rect x="459.39" y="216.66" width="6.32" height="111.75" style="fill: rgb(38, 50, 56); transform-origin: 462.55px 272.535px;" id="elzo786hmqg5" class="animable"></rect><rect x="542.47" y="259.87" width="60.71" height="32.21" style="fill: rgb(69, 90, 100); transform-origin: 572.825px 275.975px;" id="el6e19aefppyo" class="animable"></rect><g id="elh4zclbb9hkn"><rect x="537.36" y="259.87" width="5.12" height="32.21" style="fill: rgb(38, 50, 56); transform-origin: 539.92px 275.975px; transform: rotate(180deg);" class="animable" id="el2ghko55rusq"></rect></g><rect x="546.89" y="264.18" width="1.87" height="24.17" style="fill: rgb(55, 71, 79); transform-origin: 547.825px 276.265px;" id="el9x7v652nrms" class="animable"></rect><rect x="551.06" y="264.18" width="1.87" height="24.17" style="fill: rgb(55, 71, 79); transform-origin: 551.995px 276.265px;" id="el64cubg2wytd" class="animable"></rect><rect x="555.22" y="264.18" width="1.87" height="24.17" style="fill: rgb(55, 71, 79); transform-origin: 556.155px 276.265px;" id="el4molpfxmno3" class="animable"></rect><rect x="559.39" y="264.18" width="1.87" height="24.17" style="fill: rgb(55, 71, 79); transform-origin: 560.325px 276.265px;" id="elbqe3hnqg0ls" class="animable"></rect><rect x="563.56" y="264.18" width="1.87" height="24.17" style="fill: rgb(55, 71, 79); transform-origin: 564.495px 276.265px;" id="elt2abj9153u" class="animable"></rect><rect x="567.72" y="264.18" width="1.88" height="24.17" style="fill: rgb(55, 71, 79); transform-origin: 568.66px 276.265px;" id="elvfx0enhmrqr" class="animable"></rect><rect x="571.89" y="264.18" width="1.87" height="24.17" style="fill: rgb(55, 71, 79); transform-origin: 572.825px 276.265px;" id="el4dy0a6z9268" class="animable"></rect><rect x="576.06" y="264.18" width="1.88" height="24.17" style="fill: rgb(55, 71, 79); transform-origin: 577px 276.265px;" id="elmdndigch1e" class="animable"></rect><rect x="580.22" y="264.18" width="1.88" height="24.17" style="fill: rgb(55, 71, 79); transform-origin: 581.16px 276.265px;" id="el6h1nxx4hzgt" class="animable"></rect><rect x="584.39" y="264.18" width="1.88" height="24.17" style="fill: rgb(55, 71, 79); transform-origin: 585.33px 276.265px;" id="els2z2282pat" class="animable"></rect><rect x="588.56" y="264.18" width="1.87" height="24.17" style="fill: rgb(55, 71, 79); transform-origin: 589.495px 276.265px;" id="elqsv1muqsw7r" class="animable"></rect><rect x="592.72" y="264.18" width="1.87" height="24.17" style="fill: rgb(55, 71, 79); transform-origin: 593.655px 276.265px;" id="elyyzdzq8i5ji" class="animable"></rect><rect x="596.89" y="264.18" width="1.87" height="24.17" style="fill: rgb(55, 71, 79); transform-origin: 597.825px 276.265px;" id="elt96ql9uzauo" class="animable"></rect><path d="M579.85,336.77H549.56a8.35,8.35,0,0,1-8.36-8.35h47A8.35,8.35,0,0,1,579.85,336.77Z" style="fill: rgb(55, 71, 79); transform-origin: 564.7px 332.595px;" id="elo63vri52p2f" class="animable"></path><path d="M588.21,328.42a9.22,9.22,0,0,1-.65,3.43l-46.13-1.35h0a9.25,9.25,0,0,1-.23-2.07Z" style="fill: rgb(38, 50, 56); transform-origin: 564.705px 330.135px;" id="elwreuamtekv" class="animable"></path><rect x="507.05" y="335.12" width="115.3" height="4.71" style="fill: rgb(55, 71, 79); transform-origin: 564.7px 337.475px;" id="el3nrhgzs4r2o" class="animable"></rect></g><defs>     <filter id="active" height="200%">         <feMorphology in="SourceAlpha" result="DILATED" operator="dilate" radius="2"></feMorphology>                <feFlood flood-color="#32DFEC" flood-opacity="1" result="PINK"></feFlood>        <feComposite in="PINK" in2="DILATED" operator="in" result="OUTLINE"></feComposite>        <feMerge>            <feMergeNode in="OUTLINE"></feMergeNode>            <feMergeNode in="SourceGraphic"></feMergeNode>        </feMerge>    </filter>    <filter id="hover" height="200%">        <feMorphology in="SourceAlpha" result="DILATED" operator="dilate" radius="2"></feMorphology>                <feFlood flood-color="#ff0000" flood-opacity="0.5" result="PINK"></feFlood>        <feComposite in="PINK" in2="DILATED" operator="in" result="OUTLINE"></feComposite>        <feMerge>            <feMergeNode in="OUTLINE"></feMergeNode>            <feMergeNode in="SourceGraphic"></feMergeNode>        </feMerge>            <feColorMatrix type="matrix" values="0   0   0   0   0                0   1   0   0   0                0   0   0   0   0                0   0   0   1   0 "></feColorMatrix>    </filter></defs></svg>